<svg width="98" height="64" viewBox="0 0 98 64" fill="none" xmlns="http://www.w3.org/2000/svg">
<path d="M18.4413 45.4184C18.4413 47.4851 14.6227 49.1602 9.91599 49.1602C5.20799 49.1602 1.39197 47.4851 1.39197 45.4184C1.39197 43.3507 5.20799 41.6747 9.91599 41.6747C14.6227 41.6747 18.4413 43.3507 18.4413 45.4184" fill="#DB4582"/>
<path d="M95.8946 45.4184C95.8946 47.4851 92.0786 49.1602 87.3706 49.1602C82.664 49.1602 78.8466 47.4851 78.8466 45.4184C78.8466 43.3507 82.664 41.6747 87.3706 41.6747C92.0786 41.6747 95.8946 43.3507 95.8946 45.4184" fill="#DB4582"/>
<path d="M13.4587 0.409074C13.4093 0.398674 12.6493 0.246534 11.5107 0.245468C10.1053 0.248134 8.10665 0.473069 6.19332 1.57214C4.27598 2.6612 2.512 4.67574 1.70933 7.9304C1.572 8.4788 1.90531 9.03454 2.45465 9.17214C3.00265 9.30907 3.55732 8.97574 3.69465 8.42787C4.40399 5.63974 5.75067 4.20027 7.21334 3.34547C8.67867 2.49707 10.328 2.28934 11.5107 2.29187C11.9867 2.29187 12.384 2.32414 12.656 2.35601C12.792 2.37214 12.896 2.38774 12.964 2.39867L13.0373 2.41213L13.0493 2.4132C13.6027 2.5268 14.144 2.16947 14.2573 1.61587C14.3693 1.06267 14.0133 0.522674 13.4587 0.409074" fill="#231F20"/>
<path d="M84.2373 2.4132L84.2506 2.41213C84.3519 2.39187 84.9439 2.29187 85.7773 2.29187C86.9586 2.28934 88.6066 2.49707 90.0719 3.34547C91.5359 4.20027 92.8826 5.63974 93.5906 8.42787C93.7279 8.97574 94.2839 9.30907 94.8319 9.17214C95.3799 9.03454 95.7133 8.4788 95.5773 7.9304C94.7733 4.67574 93.0093 2.6612 91.0933 1.57214C89.1799 0.473069 87.1799 0.248134 85.7773 0.245468C84.6386 0.246534 83.8773 0.398674 83.8279 0.409074C83.2746 0.521608 82.9173 1.06267 83.0306 1.61587C83.1439 2.16947 83.6839 2.5268 84.2373 2.4148" fill="#231F20"/>
<path d="M48.6426 62.7268C43.8653 62.7268 40.1239 56.9893 40.1239 49.6653C40.1239 42.3413 43.8653 36.6039 48.6426 36.6039C53.4199 36.6039 57.1626 42.3413 57.1626 49.6653C57.1626 56.9893 53.4199 62.7268 48.6426 62.7268" fill="#DB4582"/>
<path d="M48.6426 35.456C43.2226 35.456 38.9773 41.697 38.9773 49.6653C38.9773 57.6336 43.2226 63.8746 48.6426 63.8746C54.0626 63.8746 58.3093 57.6336 58.3093 49.6653C58.3093 41.697 54.0626 35.456 48.6426 35.456ZM48.6426 37.7517C52.716 37.7517 56.0146 43.085 56.0146 49.6653C56.0146 56.2454 52.716 61.5798 48.6426 61.5798C44.572 61.5798 41.272 56.2454 41.272 49.6653C41.272 43.085 44.572 37.7517 48.6426 37.7517Z" fill="#231F20"/>
<path d="M54.1946 43.0054C53.52 42.997 52.7573 42.9397 51.9333 42.8757C50.932 42.7986 49.7973 42.7121 48.6426 42.7121C47.488 42.7121 46.3546 42.7986 45.3533 42.8757C44.5293 42.9397 43.768 42.997 43.092 43.0054L43.0773 43.0063C42.676 43.0063 42.304 42.797 42.096 42.4533C41.8853 42.1063 41.8733 41.673 42.0653 41.3158C43.6746 38.3215 46.072 36.6038 48.6426 36.6038C51.2146 36.6038 53.6119 38.3215 55.2213 41.3158C55.4133 41.673 55.4026 42.1063 55.1919 42.4533C54.9826 42.797 54.6106 43.0063 54.2106 43.0063L54.1946 43.0054" fill="white"/>
<path d="M48.6426 35.456C45.636 35.456 42.8706 37.3935 41.0559 40.7721C40.6706 41.4883 40.6933 42.3544 41.1146 43.0492C41.5306 43.7361 42.276 44.1533 43.0773 44.1533H43.1066C43.8346 44.144 44.6146 44.084 45.4426 44.02C46.4693 43.9413 47.532 43.8585 48.6426 43.8585C49.7533 43.8585 50.816 43.9413 51.8453 44.02C52.672 44.084 53.4533 44.144 54.18 44.1533H54.2106C55.012 44.1533 55.756 43.7361 56.172 43.0492C56.5946 42.3544 56.6159 41.4883 56.2319 40.7721C54.4159 37.3935 51.6506 35.456 48.6426 35.456V35.456ZM48.6426 37.7517C50.8666 37.7517 52.8586 39.344 54.2106 41.8585C52.7053 41.8388 50.7626 41.5637 48.6426 41.5637C46.5226 41.5637 44.5826 41.8388 43.0773 41.8585C44.428 39.344 46.42 37.7517 48.6426 37.7517Z" fill="#231F20"/>
<path d="M20.9719 59.1575H8.35193V23.3107H20.9719V59.1575Z" fill="#51ADE5"/>
<path d="M1.76662 24.9669H25.3639C26.2786 24.9669 27.0199 24.2252 27.0199 23.3107C27.0199 22.396 26.2786 21.6549 25.3639 21.6549H1.76662C0.851949 21.6549 0.110626 22.396 0.110626 23.3107C0.110626 24.2252 0.851949 24.9669 1.76662 24.9669Z" fill="#231F20"/>
<path d="M76.3147 59.1575H88.9347V23.3107H76.3147V59.1575Z" fill="#51ADE5"/>
<path d="M95.52 21.6549H71.9226C71.008 21.6549 70.2666 22.396 70.2666 23.3107C70.2666 24.2252 71.008 24.9669 71.9226 24.9669H95.52C96.4333 24.9669 97.176 24.2252 97.176 23.3107C97.176 22.396 96.4333 21.6549 95.52 21.6549Z" fill="#231F20"/>
</svg>
