<svg width="114" height="62" viewBox="0 0 114 62" fill="none" xmlns="http://www.w3.org/2000/svg">
<path d="M42.1385 22.54C42.1385 33.224 37.588 41.8827 31.975 41.8827C26.3625 41.8827 21.812 33.224 21.812 22.54C21.812 11.8574 26.3625 3.19602 31.975 3.19602C37.588 3.19602 42.1385 11.8574 42.1385 22.54Z" fill="#231F20"/>
<path d="M39.8432 15.1333C39.8432 19.7333 37.9354 23.464 35.5812 23.464C33.227 23.464 31.3182 19.7333 31.3182 15.1333C31.3182 10.532 33.227 6.80266 35.5812 6.80266C37.9354 6.80266 39.8432 10.532 39.8432 15.1333Z" fill="white"/>
<path d="M29.7167 20.4493C29.7167 22.1147 29.026 23.464 28.174 23.464C27.3224 23.464 26.6323 22.1147 26.6323 20.4493C26.6323 18.7853 27.3224 17.436 28.174 17.436C29.026 17.436 29.7167 18.7853 29.7167 20.4493Z" fill="white"/>
<path d="M34.403 27.7853C34.403 29.4493 33.713 30.7999 32.8604 30.7999C32.0088 30.7999 31.3182 29.4493 31.3182 27.7853C31.3182 26.1199 32.0088 24.7719 32.8604 24.7719C33.713 24.7719 34.403 26.1199 34.403 27.7853Z" fill="white"/>
<path d="M109.773 22.54C109.773 33.224 105.223 41.8827 99.6093 41.8827C93.9973 41.8827 89.4459 33.224 89.4459 22.54C89.4459 11.8574 93.9973 3.19602 99.6093 3.19602C105.223 3.19602 109.773 11.8574 109.773 22.54Z" fill="#231F20"/>
<path d="M107.477 15.1333C107.477 19.7333 105.569 23.464 103.216 23.464C100.861 23.464 98.9533 19.7333 98.9533 15.1333C98.9533 10.532 100.861 6.80266 103.216 6.80266C105.569 6.80266 107.477 10.532 107.477 15.1333Z" fill="white"/>
<path d="M97.3507 20.4493C97.3507 22.1147 96.66 23.464 95.808 23.464C94.956 23.464 94.2667 22.1147 94.2667 20.4493C94.2667 18.7853 94.956 17.436 95.808 17.436C96.66 17.436 97.3507 18.7853 97.3507 20.4493Z" fill="white"/>
<path d="M102.037 27.7853C102.037 29.4493 101.347 30.7999 100.495 30.7999C99.6426 30.7999 98.9533 29.4493 98.9533 27.7853C98.9533 26.1199 99.6426 24.7719 100.495 24.7719C101.347 24.7719 102.037 26.1199 102.037 27.7853Z" fill="white"/>
<path d="M35.5891 42.828C35.5891 44.896 31.7729 46.572 27.0645 46.572C22.3573 46.572 18.5406 44.896 18.5406 42.828C18.5406 40.7614 22.3573 39.0854 27.0645 39.0854C31.7729 39.0854 35.5891 40.7614 35.5891 42.828Z" fill="#DB4582"/>
<path d="M113.043 42.828C113.043 44.896 109.227 46.572 104.519 46.572C99.812 46.572 95.9946 44.896 95.9946 42.828C95.9946 40.7614 99.812 39.0854 104.519 39.0854C109.227 39.0854 113.043 40.7614 113.043 42.828Z" fill="#DB4582"/>
<path d="M99.5613 1.70931C99.5919 1.77331 100.237 3.21596 101.649 4.69996C103.051 6.17596 105.299 7.72263 108.389 7.71997C109.649 7.71997 111.031 7.46264 112.519 6.87464C113.044 6.66664 113.301 6.07196 113.095 5.54663C112.887 5.02129 112.292 4.76397 111.767 4.97197C110.488 5.47597 109.372 5.6733 108.389 5.6733C106.009 5.67197 104.309 4.5133 103.131 3.28663C102.548 2.6773 102.113 2.05729 101.829 1.59729C101.688 1.36796 101.584 1.17863 101.517 1.05063L101.445 0.906637L101.429 0.874639L101.428 0.8693L101.136 1.0013L101.428 0.87197V0.8693L101.136 1.0013L101.428 0.87197C101.197 0.35597 100.592 0.125305 100.076 0.357305C99.5599 0.587971 99.3293 1.19331 99.5613 1.70931" fill="#231F20"/>
<path d="M29.2505 0.87197L29.6005 1.02929L29.2516 0.8693L29.2505 0.87197L29.6005 1.02929L29.2516 0.8693C29.2464 0.8853 28.6604 2.14531 27.4926 3.34397C26.3145 4.55064 24.6322 5.67064 22.2874 5.6733C21.3052 5.6733 20.1874 5.47597 18.9104 4.97197C18.3849 4.76397 17.7906 5.02129 17.5828 5.54663C17.3754 6.07196 17.6328 6.66664 18.1584 6.87464C19.6453 7.46264 21.027 7.71997 22.2874 7.71997C25.3792 7.72263 27.627 6.17596 29.0281 4.69996C30.4406 3.21596 31.0864 1.77331 31.1177 1.70931C31.3484 1.19331 31.1177 0.587971 30.6027 0.357305C30.0869 0.125305 29.4812 0.35597 29.2505 0.87197" fill="#231F20"/>
<path d="M66.2177 59.8827C56.003 59.8827 47.6926 52.6387 47.6926 43.7347C47.6926 40.0307 49.1937 38.2294 52.2817 38.2294C53.765 38.2294 55.5125 38.632 57.5364 39.0987C60.1344 39.696 63.0786 40.3747 66.2177 40.3747C69.3557 40.3747 72.2994 39.696 74.8973 39.0987C76.9213 38.632 78.6688 38.2294 80.1526 38.2294C83.2396 38.2294 84.7412 40.0307 84.7412 43.7347C84.7412 52.6387 76.4306 59.8827 66.2177 59.8827Z" fill="white"/>
<path d="M80.1526 37.0826C78.5385 37.0826 76.7317 37.4986 74.6401 37.98C72.1016 38.564 69.2245 39.2266 66.2177 39.2266C63.2088 39.2266 60.3317 38.564 57.7937 37.98C55.7021 37.4986 53.8953 37.0826 52.2817 37.0826C50.1396 37.0826 46.5458 37.9453 46.5458 43.7346C46.5458 53.2706 55.3702 61.0293 66.2177 61.0293C77.064 61.0293 85.888 53.2706 85.888 43.7346C85.888 37.9453 82.2948 37.0826 80.1526 37.0826V37.0826ZM80.1516 39.3773C82.314 39.3773 83.5932 40.3746 83.5932 43.7346C83.5932 52.0186 75.813 58.7346 66.2177 58.7346C56.6202 58.7346 48.8406 52.0186 48.8406 43.7346C48.8406 40.376 50.1202 39.3773 52.2817 39.3773C55.45 39.3773 60.5125 41.5226 66.2177 41.5226C71.9213 41.5226 76.9838 39.3773 80.1516 39.3773Z" fill="#231F20"/>
<path d="M48.4729 42.3413C48.4093 42.6293 49.95 44.004 50.1697 44.2213C50.9427 44.9786 51.7943 45.6533 52.7312 46.1973C53.4188 46.596 54.1385 46.9373 54.8754 47.2346C55.338 47.4213 55.8932 47.624 56.3021 47.8373C53.5303 48.076 50.6088 47.5146 48.1473 46.204C47.688 45.96 48.4713 42.344 48.4729 42.3413" fill="#231F20"/>
<path d="M83.8099 42.3413C83.8729 42.6293 82.3328 44.004 82.1125 44.2213C81.3401 44.9786 80.4875 45.6533 79.5516 46.1973C78.864 46.596 78.1437 46.9373 77.4068 47.2346C76.9448 47.4213 76.3896 47.624 75.9807 47.8373C78.7527 48.076 81.674 47.5146 84.1355 46.204C84.5943 45.96 83.8115 42.344 83.8099 42.3413" fill="#231F20"/>
<path d="M59.6609 48.8466C59.6609 48.8466 59.7713 48.8159 59.963 48.7786C60.1541 48.7399 60.424 48.6986 60.7478 48.6586C61.0708 48.6253 61.4448 48.5933 61.8432 48.5773C62.2417 48.5693 62.664 48.5519 63.0864 48.5653C63.2973 48.5786 63.5073 48.5706 63.714 48.5826C63.9197 48.5866 64.1245 48.6026 64.3224 48.6173C64.7145 48.6359 65.0828 48.6639 65.4041 48.7079C65.564 48.7226 65.7104 48.7359 65.839 48.7493C65.9693 48.7586 66.0864 48.7786 66.1822 48.7906C66.3754 48.8199 66.4901 48.8466 66.4901 48.8466C66.4901 48.8466 66.3932 48.9026 66.214 48.9839C66.127 49.0239 66.0161 49.0746 65.8885 49.1213C65.762 49.1693 65.6166 49.2319 65.4562 49.2759C65.136 49.3546 64.7557 49.4359 64.3469 49.4906C63.9406 49.5266 63.5026 49.5573 63.0682 49.5493C62.6349 49.5319 62.201 49.5106 61.7973 49.4453C61.3948 49.3893 61.0208 49.3133 60.7036 49.2239C60.3874 49.1399 60.1254 49.0453 59.9432 48.9733C59.762 48.9013 59.6609 48.8466 59.6609 48.8466" fill="#231F20"/>
<path d="M8.96143 38.8506C4.9093 38.8506 1.73596 34.2372 1.73596 28.3466C1.73596 22.8839 7.8849 11.6493 8.14636 11.1733L8.96143 9.69326L9.7765 11.1733C10.0385 11.6493 16.1869 22.8839 16.1869 28.3466C16.1869 34.2372 13.013 38.8506 8.96143 38.8506" fill="#70D1F2"/>
<path d="M8.96144 7.76258L7.33118 10.7253C6.66358 11.9386 0.805176 22.7439 0.805176 28.3466C0.805176 34.7586 4.38744 39.7812 8.96144 39.7812C13.5344 39.7812 17.1177 34.7586 17.1177 28.3466C17.1177 22.7439 11.2598 11.9386 10.5917 10.7253L8.96144 7.76258V7.76258ZM8.96144 11.6226C8.96144 11.6226 15.2568 23.0599 15.2568 28.3466C15.2568 33.6346 12.438 37.9199 8.96144 37.9199C5.48491 37.9199 2.66611 33.6346 2.66611 28.3466C2.66611 23.0599 8.96144 11.6226 8.96144 11.6226" fill="#231F20"/>
<path d="M8.96143 37.9199C8.95516 37.9199 8.94943 37.9199 8.94316 37.9199C8.93956 37.9199 8.93543 37.9199 8.9317 37.9199C8.93023 37.9199 8.92863 37.9199 8.9265 37.9199C8.7573 37.9186 8.58796 37.9066 8.42236 37.8853C10.3604 36.0666 12.1193 33.8959 13.1104 30.7426C13.7276 28.8039 14.2625 26.8253 14.6412 24.7199C15.0114 26.0413 15.2453 27.2666 15.2562 28.2746C15.2562 28.2746 15.2562 28.2746 15.2562 28.2759C15.2562 28.2826 15.2562 28.2906 15.2562 28.2986C15.2562 28.3066 15.2568 28.3133 15.2568 28.3213C15.2568 28.3226 15.2568 28.3239 15.2568 28.3253C15.2568 28.3333 15.2568 28.3399 15.2568 28.3466C15.2568 33.6346 12.438 37.9199 8.96143 37.9199" fill="#5DABC8"/>
<path d="M8.96145 37.9199C8.95518 37.9199 8.94945 37.9199 8.94318 37.9199C8.94945 37.9199 8.95518 37.9199 8.96145 37.9199C12.438 37.9199 15.2568 33.6346 15.2568 28.3466C15.2568 33.6346 12.438 37.9199 8.96145 37.9199ZM8.93171 37.9199C8.93025 37.9199 8.92811 37.9199 8.92651 37.9199C8.92865 37.9199 8.93025 37.9199 8.93171 37.9199ZM15.2568 28.3253C15.2568 28.3239 15.2568 28.3226 15.2568 28.3213C15.2568 28.3226 15.2568 28.3239 15.2568 28.3253ZM15.2562 28.2759C15.2562 28.2746 15.2562 28.2746 15.2562 28.2746C15.2562 28.2746 15.2562 28.2746 15.2562 28.2759Z" fill="#231F20"/>
<path d="M4.79266 24.8654C4.63599 24.8654 4.53332 24.696 4.50572 24.3414C4.33746 22.1694 8.69999 14.044 8.69999 14.044C7.81252 20.4667 5.59372 24.8654 4.79266 24.8654Z" fill="#B8E8F9"/>
</svg>
