<svg width="95" height="68" viewBox="0 0 95 68" fill="none" xmlns="http://www.w3.org/2000/svg">
<path d="M73.6067 35.8373C73.6027 30.7319 74.7093 26.124 76.3933 22.9306C77.232 21.332 78.2093 20.0959 79.1973 19.3039C80.192 18.5093 81.1467 18.1533 82.1147 18.1506C83.0827 18.1533 84.0373 18.5093 85.032 19.3039C86.516 20.4879 87.9627 22.6893 88.9813 25.5759C90.0067 28.4599 90.6226 32.0079 90.6213 35.8373C90.6213 36.7533 91.3627 37.4933 92.2773 37.4933C93.1933 37.4933 93.9347 36.7533 93.9347 35.8373C93.9293 30.2599 92.7613 25.1959 90.7667 21.3893C89.7653 19.4866 88.5533 17.8906 87.1093 16.7253C85.672 15.5613 83.9533 14.8359 82.1147 14.8386C80.276 14.8359 78.556 15.5613 77.12 16.7253C74.9573 18.4773 73.3 21.1813 72.1266 24.468C70.9586 27.7586 70.296 31.6546 70.2946 35.8373C70.2946 36.7533 71.036 37.4933 71.9506 37.4933C72.8653 37.4933 73.608 36.7533 73.608 35.8373" fill="#231F20"/>
<path d="M5.08661 35.8373C5.08127 30.7319 6.18796 26.124 7.87329 22.9306C8.71063 21.332 9.6893 20.0959 10.676 19.3039C11.6706 18.5093 12.6253 18.1533 13.5933 18.1506C14.5613 18.1533 15.516 18.5093 16.5106 19.3039C17.996 20.4879 19.4426 22.6893 20.4599 25.5759C21.4853 28.4599 22.1013 32.0079 22.1013 35.8373C22.1013 36.7533 22.8426 37.4933 23.7573 37.4933C24.6719 37.4933 25.4133 36.7533 25.4133 35.8373C25.408 30.2599 24.24 25.1959 22.2466 21.3893C21.2453 19.4866 20.0319 17.8906 18.5879 16.7253C17.1519 15.5613 15.4319 14.8359 13.5933 14.8386C11.7546 14.8359 10.036 15.5613 8.59862 16.7253C6.43595 18.4773 4.77863 21.1813 3.60529 24.468C2.43863 27.7586 1.77463 31.6546 1.77463 35.8373C1.77463 36.7533 2.51462 37.4933 3.43062 37.4933C4.34528 37.4933 5.08661 36.7533 5.08661 35.8373" fill="#231F20"/>
<path d="M17.2066 46.1506C17.2066 48.2186 13.3906 49.8947 8.68393 49.8947C3.97593 49.8947 0.159943 48.2186 0.159943 46.1506C0.159943 44.084 3.97593 42.408 8.68393 42.408C13.3906 42.408 17.2066 44.084 17.2066 46.1506" fill="#DB4582"/>
<path d="M94.6626 46.1506C94.6626 48.2186 90.8453 49.8947 86.1386 49.8947C81.4306 49.8947 77.6133 48.2186 77.6133 46.1506C77.6133 44.084 81.4306 42.408 86.1386 42.408C90.8453 42.408 94.6626 44.084 94.6626 46.1506" fill="#DB4582"/>
<path d="M55.4973 54.4839C55.4986 57.5266 54.5266 60.2573 53.0226 62.1773C51.5106 64.1013 49.5373 65.1919 47.4106 65.1933C45.284 65.1919 43.3106 64.1013 41.7973 62.1773C40.2946 60.2573 39.3213 57.5266 39.324 54.4839C39.324 53.7599 38.736 53.1733 38.012 53.1733C37.288 53.1733 36.7013 53.7599 36.7013 54.4839C36.7026 58.0813 37.8333 61.3599 39.732 63.7919C41.62 66.2173 44.3466 67.8173 47.4106 67.8159C50.4746 67.8173 53.2013 66.2173 55.0893 63.7919C56.9866 61.3599 58.1173 58.0813 58.1199 54.4839C58.1199 53.7599 57.532 53.1733 56.808 53.1733C56.084 53.1733 55.4973 53.7599 55.4973 54.4839Z" fill="#231F20"/>
<path d="M12.2253 1.14126C12.176 1.13192 11.4146 0.979929 10.2773 0.978596C8.87331 0.981262 6.87462 1.20792 4.95996 2.30526C3.04396 3.39459 1.27997 5.40928 0.477308 8.66395C0.339975 9.21328 0.673287 9.76792 1.22262 9.90526C1.77062 10.0426 2.32663 9.70928 2.46396 9.16128C3.17196 6.37328 4.51731 4.93326 5.98131 4.0786C7.44665 3.2306 9.09598 3.02261 10.2773 3.02528C10.7533 3.02528 11.1506 3.05861 11.4226 3.08927C11.5586 3.10527 11.6626 3.12128 11.7306 3.13195L11.804 3.14393L11.816 3.1466C12.3693 3.25993 12.9106 2.9026 13.0226 2.34793C13.136 1.79593 12.7786 1.25459 12.2253 1.14259" fill="#231F20"/>
<path d="M83.0053 3.1466L83.0173 3.14393C83.12 3.12526 83.7107 3.02528 84.544 3.02528C85.7253 3.02261 87.3747 3.2306 88.84 4.0786C90.304 4.93326 91.6506 6.37461 92.36 9.16128C92.496 9.70928 93.052 10.0426 93.6 9.90526C94.1493 9.76792 94.4827 9.21328 94.3453 8.66395C93.5413 5.40928 91.7773 3.39459 89.8613 2.30526C87.9467 1.20792 85.948 0.981262 84.544 0.978596C83.4053 0.979929 82.6453 1.13192 82.596 1.14126C82.0427 1.25459 81.6853 1.7946 81.7987 2.34793C81.9107 2.9026 82.4507 3.25993 83.0053 3.1466Z" fill="#231F20"/>
</svg>
