<svg width="100" height="68" viewBox="0 0 100 68" fill="none" xmlns="http://www.w3.org/2000/svg">
<path d="M19.44 49.6027C19.44 51.6694 15.6226 53.3467 10.9146 53.3467C6.20795 53.3467 2.39062 51.6694 2.39062 49.6027C2.39062 47.536 6.20795 45.86 10.9146 45.86C15.6226 45.86 19.44 47.536 19.44 49.6027Z" fill="#DB4582"/>
<path d="M96.8933 49.6027C96.8933 51.6694 93.0773 53.3467 88.3693 53.3467C83.6626 53.3467 79.8466 51.6694 79.8466 49.6027C79.8466 47.536 83.6626 45.86 88.3693 45.86C93.0773 45.86 96.8933 47.536 96.8933 49.6027Z" fill="#DB4582"/>
<path d="M14.4573 1.0453C14.408 1.03596 13.6467 0.882633 12.508 0.882633C11.104 0.8853 9.10532 1.11064 7.19066 2.20931C5.27466 3.29864 3.51066 5.3133 2.70799 8.56797C2.57066 9.11597 2.90398 9.67198 3.45332 9.80931C4.00132 9.94664 4.55598 9.6133 4.69464 9.0653C5.40264 6.2773 6.74798 4.8373 8.21198 3.98263C9.67731 3.13463 11.3267 2.92663 12.508 2.9293C12.9853 2.9293 13.3827 2.96131 13.6533 2.99331C13.7907 3.00931 13.8946 3.0253 13.9626 3.03597L14.0347 3.04797L14.048 3.05063C14.6013 3.16263 15.1413 2.80664 15.2547 2.25197C15.368 1.69864 15.0107 1.15863 14.4573 1.0453" fill="#231F20"/>
<path d="M85.236 3.05063L85.2493 3.04797C85.3506 3.0293 85.9426 2.9293 86.776 2.9293C87.9573 2.92663 89.6053 3.13463 91.0706 3.98263C92.5346 4.8373 93.8813 6.2773 94.5893 9.0653C94.7266 9.6133 95.2826 9.94664 95.8306 9.80931C96.3786 9.67198 96.712 9.11597 96.576 8.56797C95.772 5.3133 94.008 3.29864 92.092 2.20931C90.1786 1.11064 88.18 0.8853 86.776 0.882633C85.6386 0.882633 84.8773 1.03596 84.828 1.0453C84.2746 1.15863 83.9173 1.69864 84.0293 2.25197C84.1426 2.80664 84.6826 3.16397 85.2373 3.05063" fill="#231F20"/>
<path d="M49.72 66.6575C39.504 66.6575 31.1946 59.4135 31.1946 50.5095C31.1946 46.8055 32.6946 45.0041 35.7826 45.0041C37.2666 45.0041 39.0133 45.4068 41.0373 45.8735C43.636 46.4721 46.5813 47.1495 49.72 47.1495C52.8573 47.1495 55.8013 46.4721 58.3986 45.8735C60.4226 45.4068 62.1693 45.0041 63.6533 45.0041C66.7413 45.0041 68.2426 46.8055 68.2426 50.5095C68.2426 59.4135 59.9333 66.6575 49.72 66.6575Z" fill="white"/>
<path d="M63.6533 43.8573C62.04 43.8573 60.2333 44.2733 58.1413 44.7546C55.604 45.3386 52.7266 46.0013 49.72 46.0013C46.7106 46.0013 43.8333 45.3386 41.2946 44.7546C39.2026 44.2733 37.396 43.8573 35.7826 43.8573C33.64 43.8573 30.0466 44.7213 30.0466 50.5093C30.0466 60.0453 38.872 67.804 49.72 67.804C60.5653 67.804 69.3893 60.0453 69.3893 50.5093C69.3893 44.7213 65.796 43.8573 63.6533 43.8573ZM63.6533 46.152C65.8146 46.152 67.0946 47.1493 67.0946 50.5093C67.0946 58.7933 59.3146 65.5093 49.72 65.5093C40.1213 65.5093 32.3413 58.7933 32.3413 50.5093C32.3413 47.1506 33.6213 46.152 35.7826 46.152C38.9506 46.152 44.0133 48.2973 49.72 48.2973C55.4226 48.2973 60.4853 46.152 63.6533 46.152Z" fill="#231F20"/>
<path d="M31.9746 49.116C31.9106 49.404 33.452 50.7786 33.6706 50.996C34.444 51.7533 35.296 52.428 36.232 52.972C36.92 53.3706 37.6386 53.712 38.3773 54.0093C38.8386 54.196 39.3933 54.3973 39.804 54.612C37.032 54.8506 34.1106 54.2893 31.6493 52.9786C31.1893 52.7333 31.972 49.1186 31.9746 49.116" fill="#231F20"/>
<path d="M67.3106 49.116C67.3746 49.404 65.8333 50.7786 65.612 50.996C64.8413 51.7533 63.9893 52.428 63.0533 52.972C62.364 53.3706 61.6453 53.712 60.908 54.0093C60.4466 54.196 59.8906 54.3973 59.4813 54.612C62.2533 54.8506 65.1746 54.2893 67.6373 52.9786C68.0946 52.7333 67.3133 49.1186 67.3106 49.116" fill="#231F20"/>
<path d="M43.1626 55.62C43.1626 55.62 43.272 55.5907 43.464 55.5534C43.656 55.5147 43.9253 55.4734 44.2493 55.4334C44.572 55.3987 44.9453 55.368 45.344 55.352C45.744 55.344 46.1666 55.3267 46.588 55.34C46.7986 55.3534 47.008 55.344 47.216 55.356C47.4213 55.3627 47.6253 55.376 47.824 55.392C48.2173 55.4107 48.584 55.4387 48.9053 55.4827C49.0653 55.4974 49.212 55.5107 49.34 55.524C49.472 55.5334 49.5866 55.5534 49.684 55.5654C49.8773 55.5947 49.992 55.62 49.992 55.62C49.992 55.62 49.8946 55.6774 49.716 55.7587C49.6266 55.7987 49.5186 55.8494 49.3906 55.896C49.2626 55.944 49.1173 56.0067 48.956 56.0494C48.6373 56.1294 48.2573 56.2107 47.848 56.2654C47.4426 56.3014 47.004 56.332 46.5706 56.324C46.136 56.3067 45.7026 56.2854 45.2986 56.2214C44.896 56.164 44.5226 56.088 44.2053 56C43.888 55.9147 43.6253 55.82 43.444 55.748C43.2626 55.676 43.1626 55.62 43.1626 55.62" fill="#231F20"/>
<path d="M60.208 27.224C60.208 27.224 56.0546 25.216 49.6626 25.216C42.804 25.216 39.116 27.224 39.116 27.224V19.752H60.208V27.224" fill="#2E2A2B"/>
<path d="M60.208 27.224L60.6813 26.244C60.5839 26.1987 56.2853 24.1294 49.6626 24.1267C42.5879 24.1267 38.7173 26.2014 38.5946 26.268L39.116 27.224H40.204V20.84H59.1186V27.224H60.208L60.6813 26.244L60.208 27.224H61.2959V18.6627H38.0266V29.0574L39.636 28.18L39.5973 28.1094L39.636 28.1814V28.18L39.5973 28.1094L39.636 28.1814C39.7373 28.128 43.2266 26.3054 49.6626 26.3054C52.7439 26.304 55.2853 26.7894 57.0453 27.2707C57.9253 27.5107 58.6093 27.7507 59.068 27.9267C59.2973 28.0147 59.4693 28.0867 59.5813 28.136L59.704 28.1907L59.7306 28.2027L59.7333 28.204L61.2959 28.96V27.224H60.208" fill="#231F20"/>
<path d="M22.2533 45.444C1.30396 45.444 1.30396 35.2666 1.30396 24.4933C1.30396 13.0626 4.46929 9.00397 22.2533 9.00397C39.568 9.00397 43.2026 17.4266 43.2026 24.4933C43.2026 34.6293 41.584 45.444 22.2533 45.444" fill="#393536"/>
<path d="M22.2533 7.85737C4.90531 7.85737 0.155975 11.4334 0.155975 24.4934C0.155975 35.3574 0.155973 46.5907 22.2533 46.5907C41.6733 46.5907 44.3506 35.9707 44.3506 24.4934C44.3506 16.904 40.516 7.85737 22.2533 7.85737ZM22.2533 10.152C33.1893 10.152 42.056 13.5574 42.056 24.4934C42.056 35.4294 39.776 44.296 22.2533 44.296C2.45064 44.296 2.45064 35.4294 2.45064 24.4934C2.45064 13.5574 5.14664 10.152 22.2533 10.152Z" fill="#231F20"/>
<path d="M36.448 13.3506C34.5026 12.1026 32.1413 11.2693 29.5013 10.7679C21.696 19.3799 12.6253 26.9653 2.97198 33.5266C3.47332 36.1333 4.45997 38.4039 6.39331 40.1799C18.084 33.7826 29.3813 24.7679 36.448 13.3506" fill="#A7A5A6"/>
<path d="M77.032 45.444C57.7 45.444 56.0813 34.6293 56.0813 24.4933C56.0813 17.4266 59.716 9.00397 77.032 9.00397C94.816 9.00397 97.9813 13.0626 97.9813 24.4933C97.9813 35.2666 97.9813 45.444 77.032 45.444" fill="#393536"/>
<path d="M77.032 7.85737C58.768 7.85737 54.9333 16.904 54.9333 24.4934C54.9333 35.9707 57.6106 46.5907 77.032 46.5907C99.128 46.5907 99.1279 35.3574 99.1279 24.4934C99.1279 11.4334 94.3786 7.85737 77.032 7.85737ZM77.032 10.152C94.1386 10.152 96.8333 13.5574 96.8333 24.4934C96.8333 35.4294 96.8333 44.296 77.032 44.296C59.5093 44.296 57.2279 35.4294 57.2279 24.4934C57.2279 13.5574 66.0946 10.152 77.032 10.152Z" fill="#231F20"/>
<path d="M86.368 10.6959C84.4093 10.4013 82.1026 10.2333 79.376 10.1773C75.6226 20.2333 67.8693 29.1586 58.3266 34.0413C59.0826 36.5093 60.328 38.6546 62.3293 40.3373C74.792 35.0786 84.2466 24.0133 86.368 10.6959Z" fill="#A7A5A6"/>
<path d="M6.05596 12.7933C6.05596 12.7933 5.67329 17.7439 2.45062 17.7439C2.45062 17.7439 6.05596 18.0853 6.05596 22.2653C6.05596 18.0853 9.66395 17.7439 9.66395 17.7439C6.43995 17.7439 6.05596 12.7933 6.05596 12.7933Z" fill="#D3D2D2"/>
<path d="M62.2906 12.7933C62.2906 12.7933 61.908 17.7439 58.6826 17.7439C58.6826 17.7439 62.2906 18.0853 62.2906 22.2653C62.2906 18.0853 65.8959 17.7439 65.8959 17.7439C62.6733 17.7439 62.2906 12.7933 62.2906 12.7933Z" fill="#D3D2D2"/>
</svg>
