<svg width="96" height="68" viewBox="0 0 96 68" fill="none" xmlns="http://www.w3.org/2000/svg">
<path d="M24.5013 29.156C24.5013 39.8388 19.9507 48.4987 14.3387 48.4987C8.72535 48.4987 4.17468 39.8388 4.17468 29.156C4.17468 18.4731 8.72535 9.81212 14.3387 9.81212C19.9507 9.81212 24.5013 18.4731 24.5013 29.156Z" fill="#231F20"/>
<path d="M22.208 21.7492C22.208 26.3492 20.2987 30.0798 17.944 30.0798C15.5907 30.0798 13.6827 26.3492 13.6827 21.7492C13.6827 17.1481 15.5907 13.4184 17.944 13.4184C20.2987 13.4184 22.208 17.1481 22.208 21.7492Z" fill="white"/>
<path d="M12.08 27.0653C12.08 28.7293 11.3892 30.0798 10.5372 30.0798C9.68525 30.0798 8.99597 28.7293 8.99597 27.0653C8.99597 25.4002 9.68525 24.0517 10.5372 24.0517C11.3892 24.0517 12.08 25.4002 12.08 27.0653Z" fill="white"/>
<path d="M16.768 34.4012C16.768 36.0654 16.0773 37.4159 15.2253 37.4159C14.3733 37.4159 13.6827 36.0654 13.6827 34.4012C13.6827 32.7372 14.3733 31.3867 15.2253 31.3867C16.0773 31.3867 16.768 32.7372 16.768 34.4012Z" fill="white"/>
<path d="M92.136 29.156C92.136 39.8388 87.5854 48.4987 81.972 48.4987C76.36 48.4987 71.8093 39.8388 71.8093 29.156C71.8093 18.4731 76.36 9.81212 81.972 9.81212C87.5854 9.81212 92.136 18.4731 92.136 29.156Z" fill="#231F20"/>
<path d="M89.8413 21.7492C89.8413 26.3492 87.9333 30.0798 85.5786 30.0798C83.2253 30.0798 81.3173 26.3492 81.3173 21.7492C81.3173 17.1481 83.2253 13.4184 85.5786 13.4184C87.9333 13.4184 89.8413 17.1481 89.8413 21.7492Z" fill="white"/>
<path d="M79.7133 27.0653C79.7133 28.7293 79.0226 30.0798 78.1706 30.0798C77.3199 30.0798 76.6293 28.7293 76.6293 27.0653C76.6293 25.4002 77.3199 24.0517 78.1706 24.0517C79.0226 24.0517 79.7133 25.4002 79.7133 27.0653Z" fill="white"/>
<path d="M84.4012 34.4012C84.4012 36.0654 83.712 37.4159 82.86 37.4159C82.008 37.4159 81.3173 36.0654 81.3173 34.4012C81.3173 32.7372 82.008 31.3867 82.86 31.3867C83.712 31.3867 84.4012 32.7372 84.4012 34.4012Z" fill="white"/>
<path d="M17.952 49.4454C17.952 51.5106 14.136 53.1866 9.42936 53.1866C4.72136 53.1866 0.905334 51.5106 0.905334 49.4454C0.905334 47.3773 4.72136 45.7012 9.42936 45.7012C14.136 45.7012 17.952 47.3773 17.952 49.4454Z" fill="#DB4582"/>
<path d="M95.408 49.4454C95.408 51.5106 91.5906 53.1866 86.884 53.1866C82.1746 53.1866 78.3586 51.5106 78.3586 49.4454C78.3586 47.3773 82.1746 45.7012 86.884 45.7012C91.5906 45.7012 95.408 47.3773 95.408 49.4454Z" fill="#DB4582"/>
<path d="M12.2839 0.886691C12.2346 0.875757 11.4733 0.72416 10.3359 0.722693C8.93192 0.725227 6.93194 0.951757 5.0186 2.04922C3.1026 3.13882 1.33722 5.15495 0.534555 8.40802C0.397222 8.95749 0.730599 9.51216 1.27993 9.64922C1.82793 9.78669 2.38394 9.45336 2.52127 8.90549C3.22927 6.11736 4.57589 4.67736 6.03989 3.82269C7.50523 2.97469 9.15459 2.76695 10.3359 2.76949C10.8119 2.76949 11.2092 2.80282 11.4812 2.83362C11.6172 2.84922 11.7212 2.86536 11.7892 2.87576L11.8612 2.88936L11.8746 2.89082C12.4279 3.00389 12.9692 2.64656 13.0812 2.09349C13.1946 1.53976 12.8372 0.998691 12.2839 0.886691" fill="#231F20"/>
<path d="M83.064 2.89082L83.076 2.88936C83.1786 2.86949 83.7693 2.76949 84.6013 2.76949C85.7826 2.76695 87.432 2.97469 88.8987 3.82269C90.3613 4.67736 91.708 6.11842 92.4173 8.90549C92.5546 9.45336 93.1106 9.78669 93.6586 9.64922C94.208 9.51216 94.5413 8.95749 94.404 8.40802C93.6 5.15335 91.8347 3.13882 89.9187 2.04922C88.0053 0.951757 86.0053 0.725227 84.6013 0.722693C83.464 0.72416 82.704 0.875757 82.6547 0.886691C82.1013 0.998691 81.744 1.53883 81.8573 2.09349C81.9693 2.64656 82.5093 3.00389 83.064 2.89082" fill="#231F20"/>
<path d="M48.5813 66.2491C43.8039 66.2491 40.0613 60.5121 40.0613 53.1866C40.0613 45.8626 43.8039 40.1251 48.5813 40.1251C53.3586 40.1251 57.1 45.8626 57.1 53.1866C57.1 60.5121 53.3586 66.2491 48.5813 66.2491Z" fill="#DB4582"/>
<path d="M48.5813 38.9773C43.1599 38.9773 38.9146 45.22 38.9146 53.1867C38.9146 61.1549 43.1599 67.396 48.5813 67.396C54.0013 67.396 58.2479 61.1549 58.2479 53.1867C58.2479 45.22 54.0013 38.9773 48.5813 38.9773ZM48.5813 41.2731C52.6519 41.2731 55.952 46.608 55.952 53.1867C55.952 59.7679 52.6519 65.1012 48.5813 65.1012C44.5093 65.1012 41.2093 59.7679 41.2093 53.1867C41.2093 46.608 44.5093 41.2731 48.5813 41.2731Z" fill="#231F20"/>
<path d="M54.132 46.5278C53.4547 46.52 52.692 46.4626 51.8653 46.3986C50.8667 46.3216 49.7333 46.2345 48.5813 46.2345C47.428 46.2345 46.2947 46.3216 45.296 46.3986C44.4693 46.4626 43.7067 46.52 43.0293 46.5278L43.0146 46.5293C42.6133 46.5293 42.2426 46.3184 42.0333 45.9757C41.8226 45.6278 41.8119 45.196 42.0039 44.8372C43.6133 41.8424 46.0106 40.1252 48.5813 40.1252C51.1506 40.1252 53.548 41.8424 55.1573 44.8372C55.3493 45.196 55.3386 45.6278 55.128 45.9757C54.9186 46.3184 54.548 46.5293 54.1466 46.5293L54.132 46.5278" fill="white"/>
<path d="M48.5813 38.9773C45.5746 38.9773 42.808 40.9158 40.9933 44.2945C40.6093 45.0106 40.6306 45.8757 41.0533 46.5705C41.4693 47.2574 42.2133 47.6757 43.0146 47.6757H43.044C43.7733 47.6669 44.5559 47.6063 45.3839 47.5423C46.4106 47.4637 47.4719 47.3814 48.5813 47.3814C49.6893 47.3814 50.7506 47.4637 51.7773 47.5423C52.6066 47.6063 53.3893 47.6669 54.1173 47.6757H54.1466C54.948 47.6757 55.6919 47.2574 56.1093 46.5705C56.5306 45.8757 56.5533 45.0106 56.1679 44.2945C54.3533 40.9158 51.5866 38.9773 48.5813 38.9773V38.9773ZM48.5813 41.273C50.8039 41.273 52.7946 42.8653 54.1466 45.3814C52.6413 45.3626 50.6999 45.0866 48.5813 45.0866C46.4613 45.0866 44.5199 45.3626 43.0146 45.3814C44.3666 42.8653 46.3586 41.273 48.5813 41.273Z" fill="#231F20"/>
</svg>
