<svg width="96" height="77" viewBox="0 0 96 77" fill="none" xmlns="http://www.w3.org/2000/svg">
<path d="M62.3346 57.5506C62.3333 58.5919 62.024 59.5839 61.4146 60.5466C60.504 61.9839 58.8813 63.3173 56.748 64.2719C54.6186 65.2279 51.9973 65.8053 49.1626 65.8039C45.384 65.8079 41.984 64.7746 39.6226 63.2013C38.44 62.4173 37.5213 61.5039 36.912 60.5466C36.3013 59.5839 35.9933 58.5919 35.9906 57.5506C35.9906 56.7386 35.3319 56.0786 34.5186 56.0786C33.7053 56.0786 33.0466 56.7386 33.0466 57.5506C33.044 59.1959 33.556 60.7626 34.428 62.1279C35.74 64.1799 37.8306 65.8159 40.372 66.9586C42.9173 68.0999 45.9306 68.7479 49.1626 68.7493C53.4706 68.7453 57.3933 67.6013 60.332 65.6546C61.8 64.6799 63.0253 63.4959 63.8986 62.1279C64.7706 60.7626 65.2813 59.1959 65.28 57.5506C65.28 56.7386 64.62 56.0786 63.8066 56.0786C62.9946 56.0786 62.3346 56.7386 62.3346 57.5506Z" fill="#231F20"/>
<path d="M24.8893 31.3226C24.8893 42.0053 20.3373 50.6653 14.7239 50.6653C9.11061 50.6653 4.56128 42.0053 4.56128 31.3226C4.56128 20.64 9.11061 11.98 14.7239 11.98C20.3373 11.98 24.8893 20.64 24.8893 31.3226Z" fill="#231F20"/>
<path d="M22.5933 23.9159C22.5933 28.5173 20.684 32.2466 18.332 32.2466C15.9773 32.2466 14.0693 28.5173 14.0693 23.9159C14.0693 19.3146 15.9773 15.5866 18.332 15.5866C20.684 15.5866 22.5933 19.3146 22.5933 23.9159Z" fill="white"/>
<path d="M12.4666 29.2333C12.4666 30.8973 11.7773 32.2466 10.924 32.2466C10.0733 32.2466 9.38266 30.8973 9.38266 29.2333C9.38266 27.5679 10.0733 26.2173 10.924 26.2173C11.7773 26.2173 12.4666 27.5679 12.4666 29.2333Z" fill="white"/>
<path d="M17.1533 36.568C17.1533 38.2333 16.4626 39.5813 15.6106 39.5813C14.76 39.5813 14.0693 38.2333 14.0693 36.568C14.0693 34.904 14.76 33.5533 15.6106 33.5533C16.4626 33.5533 17.1533 34.904 17.1533 36.568Z" fill="white"/>
<path d="M92.5226 31.3226C92.5226 42.0053 87.9719 50.6653 82.3586 50.6653C76.7453 50.6653 72.1946 42.0053 72.1946 31.3226C72.1946 20.64 76.7453 11.98 82.3586 11.98C87.9719 11.98 92.5226 20.64 92.5226 31.3226Z" fill="#231F20"/>
<path d="M90.2266 23.9159C90.2266 28.5173 88.3186 32.2466 85.9653 32.2466C83.6106 32.2466 81.7026 28.5173 81.7026 23.9159C81.7026 19.3146 83.6106 15.5866 85.9653 15.5866C88.3186 15.5866 90.2266 19.3146 90.2266 23.9159Z" fill="white"/>
<path d="M80.1013 29.2333C80.1013 30.8973 79.4106 32.2466 78.5586 32.2466C77.7066 32.2466 77.016 30.8973 77.016 29.2333C77.016 27.5679 77.7066 26.2173 78.5586 26.2173C79.4106 26.2173 80.1013 27.5679 80.1013 29.2333Z" fill="white"/>
<path d="M84.7866 36.568C84.7866 38.2333 84.0973 39.5813 83.2453 39.5813C82.3933 39.5813 81.7026 38.2333 81.7026 36.568C81.7026 34.904 82.3933 33.5533 83.2453 33.5533C84.0973 33.5533 84.7866 34.904 84.7866 36.568Z" fill="white"/>
<path d="M18.3386 52.9613C18.3386 55.028 14.5213 56.704 9.81464 56.704C5.10664 56.704 1.29062 55.028 1.29062 52.9613C1.29062 50.8933 5.10664 49.2173 9.81464 49.2173C14.5213 49.2173 18.3386 50.8933 18.3386 52.9613Z" fill="#DB4582"/>
<path d="M95.7933 52.9613C95.7933 55.028 91.9773 56.704 87.2693 56.704C82.5613 56.704 78.7453 55.028 78.7453 52.9613C78.7453 50.8933 82.5613 49.2173 87.2693 49.2173C91.9773 49.2173 95.7933 50.8933 95.7933 52.9613Z" fill="#DB4582"/>
<path d="M12.6706 0.753321C12.6213 0.743988 11.8613 0.591991 10.7226 0.590658C9.31861 0.593325 7.31863 0.819985 5.40529 1.91732C3.48796 3.00665 1.72394 5.02264 0.921276 8.27598C0.783942 8.82531 1.11729 9.37998 1.66662 9.51732C2.21462 9.65465 2.77063 9.32131 2.90796 8.77331C3.61596 5.98531 4.96261 4.54533 6.42528 3.69066C7.89061 2.84266 9.53994 2.63464 10.7226 2.63731C11.1986 2.63731 11.596 2.66934 11.868 2.70134C12.004 2.71734 12.1093 2.73331 12.176 2.74398L12.2493 2.75599L12.2626 2.75866C12.8159 2.87199 13.356 2.51466 13.4693 1.96133C13.5813 1.40666 13.224 0.866655 12.6706 0.754655" fill="#231F20"/>
<path d="M83.4493 2.75866L83.4626 2.75599C83.564 2.73732 84.1546 2.63731 84.988 2.63731C86.1706 2.63464 87.8186 2.84266 89.2853 3.69066C90.748 4.54533 92.0946 5.98664 92.804 8.77331C92.9413 9.32131 93.4973 9.65465 94.0453 9.51732C94.5933 9.37998 94.9266 8.82531 94.7893 8.27598C93.9866 5.02131 92.2213 3.00665 90.3053 1.91732C88.392 0.819985 86.392 0.593325 84.988 0.590658C83.8506 0.591991 83.0906 0.743988 83.0413 0.753321C82.4866 0.866654 82.1293 1.40666 82.2427 1.96133C82.356 2.51466 82.896 2.87199 83.4493 2.75866Z" fill="#231F20"/>
<path d="M63.48 75.8787C62.0173 75.8787 60.668 75.2133 59.78 74.0533L55.3093 68.22C55.1506 68.012 55.0813 67.7507 55.1147 67.492C55.1493 67.2333 55.2853 66.9987 55.492 66.84L61.736 62.056C61.908 61.9253 62.1186 61.8533 62.3333 61.8533L62.4626 61.8627C62.7213 61.896 62.956 62.032 63.1147 62.2387L67.584 68.0733C69.1453 70.1133 68.756 73.0413 66.7186 74.6027L66.3106 74.9173C65.4893 75.5453 64.5106 75.8787 63.48 75.8787" fill="#DB4582"/>
<path d="M62.3333 60.8707C61.904 60.8707 61.4826 61.0107 61.1373 61.276L54.8933 66.06C54.48 66.3773 54.2093 66.8453 54.14 67.3626C54.072 67.88 54.212 68.404 54.5293 68.8173L59 74.6507C60.076 76.056 61.7093 76.8613 63.48 76.8613C64.7293 76.8613 65.9146 76.46 66.908 75.6986L67.3186 75.384C69.7853 73.4933 70.256 69.9453 68.3666 67.476L63.8946 61.6413C63.5786 61.2267 63.1093 60.956 62.592 60.8867L62.3333 60.8707ZM62.3333 62.8373L66.804 68.6707C68.036 70.2813 67.7306 72.5893 66.12 73.8227L65.712 74.136C65.0453 74.648 64.26 74.8947 63.48 74.8947C62.376 74.8947 61.284 74.3987 60.56 73.4547L56.0906 67.6213L62.3333 62.8373" fill="#231F20"/>
<path d="M58.4306 65.828L61.7839 70.2026C62.1133 70.6346 62.7319 70.716 63.1626 70.3853C63.5933 70.0546 63.676 69.4373 63.3453 69.0066L59.9919 64.632C59.6613 64.2 59.044 64.1186 58.6133 64.448C58.1813 64.78 58.0999 65.396 58.4306 65.828" fill="#231F20"/>
</svg>
