<svg width="96" height="72" viewBox="0 0 96 72" fill="none" xmlns="http://www.w3.org/2000/svg">
<path d="M49.2146 70.521C43.9333 70.521 40.9479 69.7054 39.5346 67.8787C37.9839 65.873 38.6892 63.1601 39.4346 60.285C39.9279 58.3839 40.4866 56.2293 40.4866 54.0387C40.4866 52.0121 40.1519 50.097 39.8279 48.2454C39.2533 44.9669 38.7573 42.1345 40.496 40.0653C41.9533 38.3303 44.6413 37.5574 49.2146 37.5574C53.4239 37.5574 56.0599 38.3345 57.5106 40.0027C59.3453 42.1121 58.9292 45.085 58.4452 48.5278C58.1986 50.2907 57.9426 52.1147 57.9426 54.0387C57.9426 55.8626 58.1413 57.6011 58.3333 59.2814C58.7453 62.873 59.1 65.9757 57.1826 68.1251C55.724 69.7601 53.1933 70.521 49.2146 70.521" fill="#DB4582"/>
<path d="M49.2147 36.4091C44.2733 36.4091 41.312 37.3091 39.616 39.3279C37.5347 41.8064 38.1 45.0304 38.6973 48.444C39.0133 50.2481 39.34 52.1121 39.34 54.0388C39.34 56.0825 38.824 58.073 38.324 59.997C37.5414 63.0121 36.732 66.1304 38.6267 68.5798C40.3014 70.7454 43.468 71.6678 49.2147 71.6678C53.544 71.6678 56.3467 70.785 58.0387 68.8908C60.2987 66.356 59.8973 62.856 59.4733 59.1506C59.284 57.5028 59.0893 55.7986 59.0893 54.0388C59.0893 52.196 59.34 50.4121 59.5827 48.6866C60.0827 45.121 60.5547 41.7544 58.3774 39.2492C56.692 37.3121 53.78 36.4091 49.2147 36.4091ZM49.2147 38.7039C61.5933 38.7039 56.7947 45.5694 56.7947 54.0388C56.7947 62.508 60.9533 69.373 49.2147 69.373C34.0867 69.373 41.6346 62.508 41.6346 54.0388C41.6346 45.5694 36.0053 38.7039 49.2147 38.7039Z" fill="#231F20"/>
<path d="M17.776 49.1731C17.776 51.2398 13.96 52.9159 9.25068 52.9159C4.54402 52.9159 0.728027 51.2398 0.728027 49.1731C0.728027 47.1055 4.54402 45.4294 9.25068 45.4294C13.96 45.4294 17.776 47.1055 17.776 49.1731Z" fill="#DB4582"/>
<path d="M95.2307 49.1731C95.2307 51.2398 91.4133 52.9159 86.7066 52.9159C81.9986 52.9159 78.1827 51.2398 78.1827 49.1731C78.1827 47.1055 81.9986 45.4294 86.7066 45.4294C91.4133 45.4294 95.2307 47.1055 95.2307 49.1731Z" fill="#DB4582"/>
<path d="M12.1079 0.614802C12.0586 0.605468 11.2973 0.451732 10.1586 0.451732C8.7546 0.454399 6.75461 0.679865 4.84128 1.7788C2.92528 2.86786 1.16126 4.88254 0.358597 8.1372C0.221264 8.68507 0.554608 9.24133 1.10261 9.3788C1.65194 9.5148 2.20662 9.18147 2.34395 8.6336C3.05195 5.84653 4.3986 4.4064 5.86127 3.55173C7.32793 2.70386 8.97593 2.496 10.1586 2.49867C10.6346 2.49867 11.0319 2.5304 11.3039 2.56267C11.4399 2.5788 11.5453 2.59453 11.6119 2.60547L11.6853 2.61733L11.6986 2.62C12.252 2.7336 12.7919 2.37574 12.9053 1.82267C13.0186 1.26947 12.6613 0.727868 12.1079 0.615868" fill="#231F20"/>
<path d="M82.888 2.62004L82.9 2.61737C83.0013 2.5987 83.5933 2.49871 84.4266 2.49871C85.608 2.49604 87.2559 2.7039 88.7226 3.55177C90.1853 4.40643 91.5319 5.84657 92.2426 8.63457C92.3799 9.1815 92.9359 9.51484 93.4839 9.37737C94.0319 9.23977 94.364 8.68404 94.228 8.13724C93.424 4.88257 91.6586 2.8679 89.7426 1.77883C87.8293 0.6799 85.8306 0.454433 84.4266 0.451767C83.288 0.451767 82.5279 0.605503 82.4786 0.614836C81.9239 0.727903 81.5666 1.26791 81.68 1.82271C81.7933 2.37577 82.3333 2.73364 82.888 2.62004" fill="#231F20"/>
<path d="M16.7373 16.6159C8.69468 13.3492 1.90807 25.6653 2.66274 32.1987C3.66674 40.4945 16.7374 44.2637 21.764 37.7293C32.0694 25.1627 14.4747 7.06532 4.92407 23.9055C1.4054 30.4397 3.91869 35.2159 9.95069 38.4825C18.748 43.5107 23.02 36.2211 22.2667 27.6747C21.512 19.1304 13.2187 14.6055 7.94138 21.8945C2.40938 28.932 3.16537 35.9695 12.464 38.4825C16.2347 39.7397 19.2507 38.7345 20.7587 34.9637" fill="white"/>
<path d="M16.988 15.708C9.92662 13.3413 4.89193 19.956 2.66126 25.8304C0.298596 32.0518 2.65327 38.6159 9.13594 40.9788C23.8613 46.344 31.5066 26.584 20.0333 17.9825C14.4399 13.7877 8.21058 17.3774 4.77324 22.3346C-0.109424 29.3774 3.41061 36.8987 10.8719 40.0012C27.8533 47.0654 26.2639 13.8304 12.7066 17.4492C6.23324 19.1773 1.51592 28.2455 4.61725 34.3669C7.79459 40.6388 18.3933 42.1466 21.5719 35.4398C22.0893 34.3482 20.4653 33.3908 19.9439 34.4883C17.6959 39.2336 13.3812 38.2174 9.47057 36.3279C5.69191 34.5012 4.84797 30.8241 5.99863 27.1107C7.06263 23.6731 10.0653 19.6414 13.8333 19.1971C18.3906 18.6586 20.8493 24.0877 21.3253 27.6747C21.7106 30.5851 21.2319 33.6945 19.8893 36.3003C17.5799 40.7731 12.6839 38.9757 9.33724 37.0388C1.22791 32.3455 4.27595 20.9148 12.5106 18.2706C24.6306 14.3815 29.0506 39.0091 14.8012 40.1003C8.4639 40.5851 2.76924 35.5091 3.73457 29.1012C4.60924 23.3122 9.72259 15.2575 16.4866 17.5252C17.6426 17.9132 18.1346 16.0919 16.988 15.708" fill="#231F20"/>
<path d="M78.812 16.6159C86.8533 13.3492 93.64 25.6653 92.8867 32.1987C91.88 40.4945 78.812 44.2637 73.7827 37.7293C63.48 25.1627 81.0734 7.06532 90.624 23.9055C94.144 30.4397 91.6293 35.2159 85.5973 38.4825C76.8 43.5107 72.5267 36.2211 73.2813 27.6747C74.036 19.1304 82.3307 14.6055 87.6093 21.8945C93.1373 28.932 92.3827 35.9695 83.0827 38.4825C79.3134 39.7397 76.2973 38.7345 74.7893 34.9637" fill="white"/>
<path d="M79.0627 17.5252C85.7627 15.2788 90.1573 22.7413 91.62 28.1908C93.4213 34.897 87.944 39.6388 81.6573 40.1002C67.368 41.1492 69.3919 15.297 83.0373 18.2705C86.1386 18.9465 88.2773 21.8533 89.8093 24.3814C92.5173 28.8481 91.1547 33.3424 87.2133 36.373C84.5493 38.421 80.7933 40.1559 77.5827 38.4131C74.468 36.7226 74.1266 31.8814 74.1533 28.832C74.184 25.209 75.6947 21.7721 78.824 19.8585C83.2053 17.1788 86.8986 22.1064 88.7733 25.373C90.8919 29.0669 90.5319 33.1669 87.0066 35.7721C83.2946 38.5148 77.8386 39.2064 75.6026 34.4882C75.0826 33.3908 73.4573 34.3481 73.9746 35.4397C77.0786 41.9893 86.6707 40.6814 90.432 35.1054C94.3533 29.2908 89.952 20.332 83.944 17.7788C70.8427 12.2106 66.5586 43.8064 82.5026 40.7893C89.812 39.4054 95.5 31.7278 92.028 24.6345C89.108 18.6705 83.5253 14.2361 76.8493 17.1945C71.1107 19.7388 68.9027 26.921 70.124 32.6336C71.6253 39.6533 77.9693 43.0012 84.6453 41.556C91.8613 39.9934 95 33.5012 93.1893 26.7637C91.5013 20.4773 85.7413 13.3002 78.5613 15.708C77.4146 16.0918 77.9067 17.9132 79.0627 17.5252" fill="#231F20"/>
<path d="M7.01599 43.232V58.8612C7.01599 59.3575 7.41866 59.7601 7.91599 59.7601C8.41199 59.7601 8.81462 59.3575 8.81462 58.8612V43.232C8.81462 42.7361 8.41199 42.3336 7.91599 42.3336C7.41866 42.3336 7.01599 42.7361 7.01599 43.232Z" fill="#231F20"/>
<path d="M11.004 43.232V58.8612C11.004 59.3575 11.4067 59.7601 11.9027 59.7601C12.4 59.7601 12.8027 59.3575 12.8027 58.8612V43.232C12.8027 42.7361 12.4 42.3336 11.9027 42.3336C11.4067 42.3336 11.004 42.7361 11.004 43.232Z" fill="#231F20"/>
<path d="M2.97467 42.2721V62.508C2.97467 63.0731 3.43336 63.532 3.99869 63.532C4.56403 63.532 5.02135 63.0731 5.02135 62.508V42.2721C5.02135 41.7064 4.56403 41.2481 3.99869 41.2481C3.43336 41.2481 2.97467 41.7064 2.97467 42.2721" fill="#231F20"/>
</svg>
