<svg width="95" height="67" viewBox="0 0 95 67" fill="none" xmlns="http://www.w3.org/2000/svg">
<path d="M23.6853 31.432C23.6853 42.1159 19.1346 50.7758 13.5213 50.7758C7.90928 50.7758 3.35861 42.1159 3.35861 31.432C3.35861 20.7492 7.90928 12.0894 13.5213 12.0894C19.1346 12.0894 23.6853 20.7492 23.6853 31.432" fill="#231F20"/>
<path d="M21.3906 24.0252C21.3906 28.6268 19.4826 32.356 17.1279 32.356C14.7759 32.356 12.8666 28.6268 12.8666 24.0252C12.8666 19.4252 14.7759 15.696 17.1279 15.696C19.4826 15.696 21.3906 19.4252 21.3906 24.0252Z" fill="white"/>
<path d="M11.2626 29.3424C11.2626 31.0064 10.5719 32.356 9.72126 32.356C8.86926 32.356 8.17862 31.0064 8.17862 29.3424C8.17862 27.6773 8.86926 26.3293 9.72126 26.3293C10.5719 26.3293 11.2626 27.6773 11.2626 29.3424Z" fill="white"/>
<path d="M15.9506 36.6774C15.9506 38.3424 15.2599 39.6919 14.4079 39.6919C13.5559 39.6919 12.8666 38.3424 12.8666 36.6774C12.8666 35.0132 13.5559 33.6638 14.4079 33.6638C15.2599 33.6638 15.9506 35.0132 15.9506 36.6774Z" fill="white"/>
<path d="M91.3186 31.432C91.3186 42.1159 86.7693 50.7758 81.1559 50.7758C75.5426 50.7758 70.9933 42.1159 70.9933 31.432C70.9933 20.7492 75.5426 12.0894 81.1559 12.0894C86.7693 12.0894 91.3186 20.7492 91.3186 31.432" fill="#231F20"/>
<path d="M89.0253 24.0252C89.0253 28.6268 87.116 32.356 84.7626 32.356C82.4093 32.356 80.5 28.6268 80.5 24.0252C80.5 19.4252 82.4093 15.696 84.7626 15.696C87.116 15.696 89.0253 19.4252 89.0253 24.0252Z" fill="white"/>
<path d="M78.896 29.3424C78.896 31.0064 78.2066 32.356 77.3546 32.356C76.5026 32.356 75.812 31.0064 75.812 29.3424C75.812 27.6773 76.5026 26.3293 77.3546 26.3293C78.2066 26.3293 78.896 27.6773 78.896 29.3424Z" fill="white"/>
<path d="M83.584 36.6774C83.584 38.3424 82.8933 39.6919 82.0426 39.6919C81.1906 39.6919 80.5 38.3424 80.5 36.6774C80.5 35.0132 81.1906 33.6638 82.0426 33.6638C82.8933 33.6638 83.584 35.0132 83.584 36.6774Z" fill="white"/>
<path d="M17.1373 53.0706C17.1373 55.1388 13.32 56.8132 8.61197 56.8132C3.90397 56.8132 0.0879517 55.1388 0.0879517 53.0706C0.0879517 51.0028 3.90397 49.3279 8.61197 49.3279C13.32 49.3279 17.1373 51.0028 17.1373 53.0706Z" fill="#DB4582"/>
<path d="M94.5906 53.0706C94.5906 55.1388 90.7733 56.8132 86.0666 56.8132C81.3586 56.8132 77.5426 55.1388 77.5426 53.0706C77.5426 51.0028 81.3586 49.3279 86.0666 49.3279C90.7733 49.3279 94.5906 51.0028 94.5906 53.0706Z" fill="#DB4582"/>
<path d="M12.9653 0.863657C12.916 0.854857 12.1546 0.701122 11.0173 0.700189C9.61196 0.702722 7.61331 0.92926 5.69864 2.02673C3.78264 3.11579 2.01866 5.13032 1.21599 8.38499C1.07866 8.93352 1.41197 9.48926 1.95997 9.62673C2.5093 9.76366 3.06398 9.43032 3.20131 8.88246C3.91064 6.09592 5.25596 4.65486 6.71996 3.80019C8.18529 2.95326 9.83463 2.74539 11.0173 2.74645C11.4933 2.74645 11.8906 2.77979 12.1626 2.81059C12.2986 2.82672 12.4026 2.84232 12.4706 2.85326L12.5427 2.86686L12.556 2.86939C13.1093 2.98139 13.6506 2.62513 13.764 2.07046C13.876 1.51726 13.5186 0.977257 12.9653 0.863657Z" fill="#231F20"/>
<path d="M86.7106 7.36686V7.36939C86.6666 7.43606 85.9959 8.39859 84.8519 9.30792C83.7026 10.2226 82.1213 11.0669 80.1893 11.0653C78.9333 11.0637 77.4973 10.7183 75.8426 9.72926C75.3586 9.43873 74.7293 9.59699 74.44 10.0814C74.1493 10.5653 74.3066 11.1945 74.7906 11.485C76.7146 12.6397 78.5453 13.1131 80.1893 13.1121C82.8186 13.1106 84.8826 11.9319 86.2599 10.8011C87.6413 9.66366 88.3799 8.55166 88.4173 8.497C88.7293 8.02673 88.5999 7.39072 88.1293 7.07979C87.6586 6.76686 87.024 6.89593 86.712 7.3678" fill="#231F20"/>
<path d="M33.1467 62.9721L33.148 62.9705C33.2133 62.8773 33.7493 62.173 34.68 61.5268C35.616 60.8773 36.9066 60.2825 38.624 60.2798C39.3373 60.2798 40.1306 60.384 41.02 60.6454C41.5773 60.8064 42.216 61.185 42.9307 61.7361C44.0053 62.5544 45.208 63.7278 46.7147 64.7424C48.216 65.7544 50.0987 66.6012 52.3987 66.597C54.668 66.5986 56.5813 66.1121 58.136 65.3626C60.472 64.2372 61.972 62.5533 62.88 61.1694C63.7893 59.7814 64.128 58.6773 64.1573 58.5825C64.392 57.8038 63.9507 56.9825 63.172 56.7481C62.3933 56.5132 61.572 56.9544 61.3387 57.7336L62.1973 57.9918L61.34 57.7252L61.3373 57.7336L62.1973 57.9918L61.34 57.7252C61.34 57.7268 61.3133 57.8132 61.248 57.9798C61.0187 58.5637 60.328 60.0226 58.9613 61.2788C57.584 62.5336 55.5907 63.6397 52.3987 63.6517C51.34 63.6492 50.4507 63.408 49.5987 63.009C48.3227 62.4132 47.1546 61.4226 45.9533 60.4028C44.7466 59.3986 43.5146 58.3268 41.852 57.8216C40.7066 57.4825 39.624 57.3345 38.624 57.3345C36.0346 57.3336 34.04 58.3241 32.7413 59.2934C31.436 60.2669 30.7773 61.2226 30.7133 61.3121C30.2547 61.984 30.428 62.9002 31.1 63.3585C31.772 63.8173 32.688 63.644 33.1467 62.973" fill="#231F20"/>
</svg>
