<svg width="96" height="75" viewBox="0 0 96 75" fill="none" xmlns="http://www.w3.org/2000/svg">
<path d="M24.3253 31.4534C24.3253 42.136 19.776 50.7974 14.1627 50.7974C8.54932 50.7974 3.99866 42.136 3.99866 31.4534C3.99866 20.7707 8.54932 12.1107 14.1627 12.1107C19.776 12.1107 24.3253 20.7707 24.3253 31.4534Z" fill="#231F20"/>
<path d="M22.0307 24.048C22.0307 28.648 20.1226 32.3773 17.768 32.3773C15.416 32.3773 13.5067 28.648 13.5067 24.048C13.5067 19.4467 15.416 15.7173 17.768 15.7173C20.1226 15.7173 22.0307 19.4467 22.0307 24.048Z" fill="white"/>
<path d="M11.9026 29.364C11.9026 31.0293 11.2133 32.3773 10.3613 32.3773C9.50931 32.3773 8.81866 31.0293 8.81866 29.364C8.81866 27.6987 9.50931 26.3493 10.3613 26.3493C11.2133 26.3493 11.9026 27.6987 11.9026 29.364Z" fill="white"/>
<path d="M16.5907 36.6987C16.5907 38.3641 15.9 39.7134 15.0494 39.7134C14.1974 39.7134 13.5067 38.3641 13.5067 36.6987C13.5067 35.0347 14.1974 33.6854 15.0494 33.6854C15.9 33.6854 16.5907 35.0347 16.5907 36.6987Z" fill="white"/>
<path d="M91.9586 31.4534C91.9586 42.136 87.4093 50.7974 81.796 50.7974C76.1827 50.7974 71.6333 42.136 71.6333 31.4534C71.6333 20.7707 76.1827 12.1107 81.796 12.1107C87.4093 12.1107 91.9586 20.7707 91.9586 31.4534Z" fill="#231F20"/>
<path d="M89.6654 24.048C89.6654 28.648 87.756 32.3773 85.4027 32.3773C83.0494 32.3773 81.1414 28.648 81.1414 24.048C81.1414 19.4467 83.0494 15.7173 85.4027 15.7173C87.756 15.7173 89.6654 19.4467 89.6654 24.048Z" fill="white"/>
<path d="M79.5373 29.364C79.5373 31.0293 78.8466 32.3773 77.996 32.3773C77.1426 32.3773 76.452 31.0293 76.452 29.364C76.452 27.6987 77.1426 26.3493 77.996 26.3493C78.8466 26.3493 79.5373 27.6987 79.5373 29.364Z" fill="white"/>
<path d="M84.224 36.6987C84.224 38.3641 83.5347 39.7134 82.6827 39.7134C81.832 39.7134 81.1414 38.3641 81.1414 36.6987C81.1414 35.0347 81.832 33.6854 82.6827 33.6854C83.5347 33.6854 84.224 35.0347 84.224 36.6987Z" fill="white"/>
<path d="M17.776 53.0921C17.776 55.1601 13.96 56.8347 9.25068 56.8347C4.54402 56.8347 0.728027 55.1601 0.728027 53.0921C0.728027 51.0254 4.54402 49.348 9.25068 49.348C13.96 49.348 17.776 51.0254 17.776 53.0921Z" fill="#DB4582"/>
<path d="M95.2307 53.0921C95.2307 55.1601 91.4133 56.8347 86.7066 56.8347C81.9986 56.8347 78.1827 55.1601 78.1827 53.0921C78.1827 51.0254 81.9986 49.348 86.7066 49.348C91.4133 49.348 95.2307 51.0254 95.2307 53.0921Z" fill="#DB4582"/>
<path d="M12.1066 0.883936C12.0572 0.874603 11.2973 0.722607 10.16 0.721273C8.75463 0.72394 6.75595 0.950601 4.84128 2.04793C2.92528 3.13727 1.16126 5.15326 0.358597 8.40659C0.221264 8.95593 0.554608 9.5106 1.10261 9.64793C1.65194 9.78527 2.20662 9.45192 2.34395 8.90392C3.05195 6.11592 4.39863 4.67594 5.86263 3.82127C7.32797 2.97461 8.9773 2.76529 10.16 2.76795C10.636 2.76795 11.0333 2.80128 11.3053 2.83195C11.4399 2.84795 11.5453 2.86393 11.6119 2.87459L11.6853 2.88661L11.6986 2.88928C12.252 3.00261 12.7919 2.64528 12.9053 2.09194C13.0173 1.53861 12.6613 0.997271 12.1079 0.885271" fill="#231F20"/>
<path d="M82.888 2.88928L82.9 2.88661C83.0013 2.86794 83.5919 2.76795 84.4253 2.76795C85.6066 2.76529 87.256 2.97461 88.7213 3.82127C90.1853 4.67594 91.5319 6.11726 92.2426 8.90392C92.3799 9.45192 92.9359 9.78527 93.4839 9.64793C94.0319 9.5106 94.364 8.95459 94.228 8.40659C93.424 5.15193 91.6586 3.13727 89.7426 2.04793C87.8279 0.950601 85.8293 0.72394 84.4253 0.721273C83.2879 0.722607 82.5279 0.874603 82.4786 0.883936C81.9239 0.997269 81.5666 1.53861 81.68 2.09194C81.7933 2.64661 82.3333 3.00261 82.888 2.88928Z" fill="#231F20"/>
<path d="M48.7307 73.8519C39.0414 73.8519 31.1587 66.9799 31.1587 58.5346C31.1587 55.0186 32.5827 53.3106 35.5107 53.3106C36.9174 53.3106 38.5761 53.6919 40.4961 54.1346C42.9601 54.7026 45.7534 55.3453 48.7307 55.3453C51.708 55.3453 54.5014 54.7026 56.9667 54.1346C58.8867 53.6919 60.544 53.3106 61.9507 53.3106C64.88 53.3106 66.304 55.0186 66.304 58.5346C66.304 66.9799 58.42 73.8519 48.7307 73.8519" fill="white"/>
<path d="M61.9506 52.2226C60.42 52.2226 58.7067 52.6159 56.7227 53.0733C54.3147 53.6279 51.5853 54.2573 48.7307 54.2573C45.8773 54.2573 43.148 53.6279 40.74 53.0733C38.756 52.6159 37.0413 52.2226 35.5107 52.2226C33.4787 52.2226 30.0693 53.0413 30.0693 58.5346C30.0693 67.5799 38.4413 74.9399 48.7307 74.9399C59.0213 74.9399 67.392 67.5799 67.392 58.5346C67.392 53.0413 63.984 52.2226 61.9506 52.2226V52.2226ZM61.9506 54.3986C64.0013 54.3986 65.216 55.3466 65.216 58.5346C65.216 66.3919 57.836 72.7626 48.7307 72.7626C39.6267 72.7626 32.2467 66.3919 32.2467 58.5346C32.2467 55.3466 33.4613 54.3986 35.5107 54.3986C38.516 54.3986 43.3187 56.4346 48.7307 56.4346C54.1427 56.4346 58.9453 54.3986 61.9506 54.3986" fill="#231F20"/>
<path d="M48.7813 73.8519C39.876 73.8519 32.376 68.0453 31.3346 60.3453C31.28 59.9373 31.46 59.5346 31.7987 59.3013C31.9827 59.1746 32.1986 59.1106 32.4146 59.1106C32.5946 59.1106 32.776 59.1559 32.94 59.2453C36.6853 61.3079 42.2907 62.4919 48.316 62.4919C54.8827 62.4919 60.9773 61.0719 64.62 58.6933C64.8013 58.5746 65.008 58.5146 65.216 58.5146C65.4093 58.5146 65.6027 58.5666 65.7747 58.6693C66.132 58.8839 66.336 59.2826 66.3 59.6986C65.6147 67.6346 57.92 73.8519 48.7813 73.8519" fill="#DB4582"/>
<path d="M65.2159 57.4266C64.8013 57.4266 64.3866 57.5453 64.0252 57.7813C60.5519 60.0493 54.6786 61.4039 48.3159 61.4039C42.4679 61.4039 37.0559 60.2693 33.4639 58.2919C33.1359 58.1106 32.7746 58.0226 32.4146 58.0226C31.9826 58.0226 31.5533 58.1506 31.1826 58.4039C30.5039 58.8679 30.1466 59.6759 30.2559 60.4906C31.3692 68.7279 39.3332 74.9399 48.7812 74.9399C58.4799 74.9399 66.6506 68.2853 67.3853 59.7919C67.4559 58.9613 67.0479 58.1626 66.3332 57.7359C65.9892 57.5293 65.6026 57.4266 65.2159 57.4266V57.4266ZM65.2159 59.6039C64.5799 66.9626 57.4692 72.7626 48.7812 72.7626C40.3319 72.7626 33.3692 67.2719 32.4146 60.1986C36.1586 62.2613 41.8879 63.5813 48.3159 63.5813C55.3439 63.5813 61.5399 62.0039 65.2159 59.6039Z" fill="#231F20"/>
</svg>
