<svg width="111" height="75" viewBox="0 0 111 75" fill="none" xmlns="http://www.w3.org/2000/svg">
<path d="M25.2013 53.0921C25.2013 55.1601 21.3853 56.8347 16.6773 56.8347C11.9693 56.8347 8.15332 55.1601 8.15332 53.0921C8.15332 51.0254 11.9693 49.348 16.6773 49.348C21.3853 49.348 25.2013 51.0254 25.2013 53.0921Z" fill="#DB4582"/>
<path d="M102.656 53.0921C102.656 55.1601 98.8386 56.8347 94.132 56.8347C89.4226 56.8347 85.608 55.1601 85.608 53.0921C85.608 51.0254 89.4226 49.348 94.132 49.348C98.8386 49.348 102.656 51.0254 102.656 53.0921Z" fill="#DB4582"/>
<path d="M19.5333 0.883936C19.484 0.874603 18.724 0.722607 17.5853 0.721273C16.1813 0.72394 14.1813 0.950601 12.268 2.04793C10.3506 3.13727 8.58662 5.15193 7.78395 8.40659C7.64662 8.95593 7.97995 9.5106 8.52795 9.64793C9.07595 9.78527 9.63195 9.45192 9.76929 8.90392C10.4786 6.11726 11.8253 4.67594 13.288 3.82127C14.7546 2.97461 16.404 2.76529 17.5853 2.76795C18.0613 2.76795 18.4586 2.80128 18.7306 2.83195C18.8666 2.84795 18.972 2.86393 19.0386 2.87459L19.1119 2.88661L19.1253 2.88928C19.6786 3.00261 20.2186 2.64528 20.332 2.09194C20.444 1.53861 20.0866 0.997271 19.5333 0.885271" fill="#231F20"/>
<path d="M90.312 2.88928L90.324 2.88661C90.4266 2.86794 91.0173 2.76795 91.8506 2.76795C93.032 2.76529 94.6813 2.97461 96.1466 3.82127C97.6106 4.67594 98.9573 6.11726 99.6666 8.90392C99.804 9.45192 100.36 9.78527 100.908 9.64793C101.456 9.5106 101.789 8.95593 101.652 8.40659C100.849 5.15193 99.084 3.13727 97.168 2.04793C95.2533 0.950601 93.2546 0.72394 91.8506 0.721273C90.712 0.722607 89.952 0.874603 89.9026 0.883936C89.3493 0.997269 88.992 1.53728 89.1053 2.09194C89.2173 2.64528 89.7573 3.00261 90.312 2.88928" fill="#231F20"/>
<path d="M56.156 73.8519C46.4666 73.8519 38.5826 66.9799 38.5826 58.5346C38.5826 55.0186 40.0066 53.3106 42.936 53.3106C44.3426 53.3106 46.0013 53.6919 47.9213 54.1346C50.3853 54.7026 53.1786 55.3453 56.156 55.3453C59.1333 55.3453 61.9266 54.7026 64.3906 54.1346C66.3106 53.6919 67.9693 53.3106 69.376 53.3106C72.3053 53.3106 73.728 55.0186 73.728 58.5346C73.728 66.9799 65.8453 73.8519 56.156 73.8519" fill="white"/>
<path d="M69.376 52.2226C67.8453 52.2226 66.1306 52.6159 64.1466 53.0733C61.7386 53.6279 59.0093 54.2573 56.156 54.2573C53.3026 54.2573 50.5733 53.6279 48.1666 53.0733C46.1813 52.6159 44.4666 52.2226 42.936 52.2226C40.904 52.2226 37.4946 53.0413 37.4946 58.5346C37.4946 67.5799 45.8653 74.9399 56.156 74.9399C66.4453 74.9399 74.8173 67.5799 74.8173 58.5346C74.8173 53.0413 71.408 52.2226 69.376 52.2226ZM69.376 54.3986C71.4266 54.3986 72.64 55.3466 72.64 58.5346C72.64 66.3919 65.26 72.7626 56.156 72.7626C47.0533 72.7626 39.6706 66.3919 39.6706 58.5346C39.6706 55.3466 40.8866 54.3986 42.936 54.3986C45.9426 54.3986 50.744 56.4346 56.156 56.4346C61.568 56.4346 66.3706 54.3986 69.376 54.3986" fill="#231F20"/>
<path d="M56.2067 73.8519C47.3013 73.8519 39.8013 68.0453 38.76 60.3453C38.7053 59.9373 38.8853 59.5346 39.224 59.3013C39.408 59.1746 39.624 59.1106 39.8387 59.1106C40.02 59.1106 40.2 59.1559 40.364 59.2453C44.1107 61.3079 49.7147 62.4919 55.7413 62.4919C62.3093 62.4919 68.404 61.0719 72.044 58.6933C72.2253 58.5746 72.432 58.5146 72.64 58.5146C72.8333 58.5146 73.0267 58.5666 73.1987 58.6693C73.556 58.8839 73.76 59.2826 73.724 59.6986C73.04 67.6346 65.3453 73.8519 56.2067 73.8519" fill="#DB4582"/>
<path d="M72.64 57.4266C72.224 57.4266 71.8106 57.5453 71.448 57.7813C67.9786 60.0493 62.1066 61.4039 55.7413 61.4039C49.892 61.4039 44.48 60.2693 40.8893 58.2919C40.5613 58.1106 40.2 58.0226 39.8386 58.0226C39.408 58.0226 38.9773 58.1493 38.6093 58.4026C37.9306 58.8679 37.572 59.6759 37.6813 60.4906C38.7946 68.7279 46.7586 74.9399 56.2066 74.9399C65.9053 74.9399 74.076 68.2853 74.8093 59.7906C74.8813 58.9613 74.472 58.1626 73.7573 57.7359C73.4133 57.5293 73.0266 57.4266 72.64 57.4266V57.4266ZM72.64 59.6039C72.0053 66.9626 64.8933 72.7626 56.2066 72.7626C47.756 72.7626 40.7946 67.2719 39.8386 60.1986C43.5826 62.2613 49.3146 63.5813 55.7413 63.5813C62.7693 63.5813 68.9666 62.0039 72.64 59.6039Z" fill="#231F20"/>
<path d="M20.748 49.1787C20.488 49.1787 20.2293 49.0867 20.0226 48.9014L4.61863 35.1241C0.709297 31.6267 0.373299 25.6001 3.87063 21.6907C5.67197 19.6747 8.25863 18.5187 10.964 18.5187C13.3053 18.5187 15.556 19.3787 17.304 20.9414L20.748 24.0227L24.5586 20.6147C26.3053 19.052 28.556 18.1921 30.8973 18.1921C33.604 18.1921 36.1893 19.3481 37.992 21.3627C39.6866 23.2587 40.5413 25.6987 40.4013 28.2361C40.26 30.7721 39.1386 33.1027 37.2453 34.7974L21.4733 48.9014C21.2666 49.0867 21.008 49.1787 20.748 49.1787" fill="#DB4582"/>
<path d="M30.8973 17.1026C28.288 17.1026 25.7786 18.0626 23.8333 19.8026L20.748 22.5613L18.0293 20.1293C16.0826 18.3893 13.5733 17.4306 10.964 17.4306C7.94797 17.4306 5.06797 18.7173 3.05863 20.9653C-0.838699 25.3213 -0.464032 32.0373 3.89197 35.936L19.296 49.7133C19.7093 50.0813 20.228 50.2666 20.748 50.2666C21.268 50.2666 21.7853 50.0813 22.2 49.7133L37.9706 35.6079C40.0813 33.7199 41.3306 31.1239 41.488 28.2959C41.6453 25.4679 40.692 22.7479 38.804 20.6373C36.7946 18.3919 33.9133 17.1026 30.8973 17.1026V17.1026ZM30.8973 19.2799C33.212 19.2799 35.516 20.2279 37.1813 22.0893C40.2826 25.5573 39.9866 30.8839 36.5186 33.9853L20.748 48.0893L5.34397 34.3133C1.87597 31.2106 1.57997 25.8839 4.68131 22.4159C6.34531 20.5559 8.65064 19.6079 10.964 19.6079C12.9626 19.6079 14.9693 20.3146 16.5773 21.7533L20.748 25.4826L25.2853 21.4253C26.892 19.9879 28.8986 19.2799 30.8973 19.2799" fill="#231F20"/>
<path d="M36.8507 23.672C38.3986 26.2627 38.188 29.2374 36.3826 30.316C34.5746 31.3947 31.8573 30.1693 30.3093 27.5787C28.7626 24.9867 28.972 22.012 30.7786 20.9334C32.5853 19.8534 35.3053 21.0813 36.8507 23.672" fill="white"/>
<path d="M27.6386 26.9027C28.0866 27.8627 27.9293 28.884 27.288 29.184C26.6453 29.4827 25.7613 28.9481 25.3133 27.9881C24.8653 27.0294 25.0226 26.008 25.6653 25.708C26.3066 25.408 27.1906 25.9441 27.6386 26.9027" fill="white"/>
<path d="M32.3573 32.736C32.3573 33.444 31.7813 34.0187 31.0746 34.0187C30.364 34.0187 29.7906 33.444 29.7906 32.736C29.7906 32.028 30.364 31.4533 31.0746 31.4533C31.7813 31.4533 32.3573 32.028 32.3573 32.736Z" fill="white"/>
<path d="M89.924 49.1787C89.6653 49.1787 89.4053 49.0867 89.1986 48.9014L73.7946 35.1241C71.9013 33.4294 70.78 31.0987 70.6386 28.5614C70.4973 26.0241 71.352 23.5841 73.0466 21.6907C74.8493 19.6747 77.4346 18.5187 80.14 18.5187C82.4813 18.5187 84.7333 19.3787 86.48 20.9414L89.924 24.0227L93.7346 20.6147C95.4813 19.052 97.732 18.1921 100.075 18.1921C102.78 18.1921 105.367 19.3481 107.168 21.3627C108.863 23.2587 109.719 25.6987 109.577 28.2361C109.436 30.7721 108.315 33.1027 106.42 34.7974L90.6506 48.9014C90.444 49.0867 90.184 49.1787 89.924 49.1787" fill="#DB4582"/>
<path d="M100.075 17.1026C97.464 17.1026 94.9546 18.0613 93.008 19.8026L89.924 22.5613L87.2053 20.1293C85.2586 18.3893 82.7493 17.4306 80.14 17.4306C77.1253 17.4306 74.244 18.7173 72.2346 20.9653C70.3466 23.0746 69.3933 25.7946 69.552 28.6226C69.7093 31.4493 70.9586 34.0466 73.0693 35.936L88.4733 49.7133C88.8866 50.0813 89.4053 50.2666 89.924 50.2666C90.444 50.2666 90.9626 50.0813 91.3759 49.7133L107.147 35.6079C109.257 33.7199 110.507 31.1239 110.664 28.2959C110.821 25.4679 109.868 22.7479 107.98 20.6373C105.972 18.3919 103.089 17.1026 100.075 17.1026V17.1026ZM100.075 19.2799C102.389 19.2799 104.693 20.2279 106.357 22.0893C109.459 25.5573 109.164 30.8839 105.695 33.9853L89.924 48.0893L74.5213 34.3133C71.0533 31.2106 70.7559 25.8839 73.8586 22.4159C75.5226 20.5559 77.8266 19.6079 80.14 19.6079C82.14 19.6079 84.1466 20.3146 85.7533 21.7533L89.924 25.4826L94.4599 21.4253C96.0679 19.9879 98.0746 19.2799 100.075 19.2799Z" fill="#231F20"/>
<path d="M106.037 23.672C107.585 26.2627 107.375 29.2374 105.567 30.316C103.761 31.3947 101.043 30.1693 99.496 27.5787C97.948 24.9867 98.1586 22.012 99.9653 20.9334C101.772 19.8534 104.492 21.0813 106.037 23.672" fill="white"/>
<path d="M96.8253 26.9027C97.2733 27.8627 97.1147 28.884 96.4747 29.184C95.832 29.4827 94.948 28.9481 94.5 27.9881C94.0533 27.0294 94.2093 26.008 94.852 25.708C95.4933 25.408 96.376 25.9441 96.8253 26.9027" fill="white"/>
<path d="M101.541 32.736C101.541 33.444 100.969 34.0187 100.259 34.0187C99.552 34.0187 98.976 33.444 98.976 32.736C98.976 32.028 99.552 31.4533 100.259 31.4533C100.969 31.4533 101.541 32.028 101.541 32.736Z" fill="white"/>
</svg>
