<svg width="96" height="62" viewBox="0 0 96 62" fill="none" xmlns="http://www.w3.org/2000/svg">
<path d="M24.3253 28.9466C24.3253 39.6306 19.776 48.2893 14.1627 48.2893C8.54932 48.2893 3.99866 39.6306 3.99866 28.9466C3.99866 18.264 8.54932 9.60397 14.1627 9.60397C19.776 9.60397 24.3253 18.264 24.3253 28.9466Z" fill="#231F20"/>
<path d="M22.0307 21.5413C22.0307 26.1413 20.1226 29.8706 17.768 29.8706C15.416 29.8706 13.5067 26.1413 13.5067 21.5413C13.5067 16.9399 15.416 13.2106 17.768 13.2106C20.1226 13.2106 22.0307 16.9399 22.0307 21.5413Z" fill="white"/>
<path d="M11.9026 26.8573C11.9026 28.5213 11.2133 29.8706 10.3613 29.8706C9.50931 29.8706 8.81866 28.5213 8.81866 26.8573C8.81866 25.1919 9.50931 23.8426 10.3613 23.8426C11.2133 23.8426 11.9026 25.1919 11.9026 26.8573Z" fill="white"/>
<path d="M16.5907 34.192C16.5907 35.8573 15.9 37.2067 15.0494 37.2067C14.1974 37.2067 13.5067 35.8573 13.5067 34.192C13.5067 32.528 14.1974 31.1787 15.0494 31.1787C15.9 31.1787 16.5907 32.528 16.5907 34.192Z" fill="white"/>
<path d="M91.9586 28.9466C91.9586 39.6306 87.4093 48.2893 81.796 48.2893C76.1827 48.2893 71.6333 39.6306 71.6333 28.9466C71.6333 18.264 76.1827 9.60397 81.796 9.60397C87.4093 9.60397 91.9586 18.264 91.9586 28.9466Z" fill="#231F20"/>
<path d="M89.6654 21.5413C89.6654 26.1413 87.756 29.8706 85.4027 29.8706C83.0494 29.8706 81.1414 26.1413 81.1414 21.5413C81.1414 16.9399 83.0494 13.2106 85.4027 13.2106C87.756 13.2106 89.6654 16.9399 89.6654 21.5413Z" fill="white"/>
<path d="M79.5373 26.8573C79.5373 28.5213 78.8466 29.8706 77.996 29.8706C77.1426 29.8706 76.452 28.5213 76.452 26.8573C76.452 25.1919 77.1426 23.8426 77.996 23.8426C78.8466 23.8426 79.5373 25.1919 79.5373 26.8573Z" fill="white"/>
<path d="M84.224 34.192C84.224 35.8573 83.5347 37.2067 82.6827 37.2067C81.832 37.2067 81.1414 35.8573 81.1414 34.192C81.1414 32.528 81.832 31.1787 82.6827 31.1787C83.5347 31.1787 84.224 32.528 84.224 34.192Z" fill="white"/>
<path d="M17.776 49.236C17.776 51.304 13.96 52.9786 9.25068 52.9786C4.54402 52.9786 0.728027 51.304 0.728027 49.236C0.728027 47.168 4.54402 45.4933 9.25068 45.4933C13.96 45.4933 17.776 47.168 17.776 49.236Z" fill="#DB4582"/>
<path d="M95.2307 49.236C95.2307 51.304 91.4133 52.9786 86.7066 52.9786C81.9986 52.9786 78.1827 51.304 78.1827 49.236C78.1827 47.168 81.9986 45.4933 86.7066 45.4933C91.4133 45.4933 95.2307 47.168 95.2307 49.236Z" fill="#DB4582"/>
<path d="M41.5813 48.1507C41.3533 48.1094 41.1253 48.088 40.8987 48.088C40.0307 48.0867 39.2426 48.396 38.6013 48.84C37.6359 49.512 36.936 50.468 36.4187 51.456C35.9067 52.4507 35.5826 53.476 35.48 54.3987C35.4413 54.7547 35.42 55.1 35.42 55.4374C35.4106 56.876 35.8266 58.1587 36.6759 59.1214C37.5199 60.084 38.6746 60.6974 40.0426 61.184C41.0946 61.556 42.1133 61.7374 43.0813 61.7374C45.1453 61.7454 46.9613 60.8787 48.1786 59.448C49.4013 58.02 50.0479 56.08 50.0479 53.9347C50.0479 53.7374 50.0427 53.536 50.032 53.3294C50.0067 52.8654 49.7026 52.46 49.264 52.3067C48.8253 52.1547 48.3347 52.2827 48.0267 52.6294C47.708 52.9934 47.5346 53.404 47.4306 53.8067C47.3253 54.2134 47.288 54.6254 47.288 55.0414C47.2893 55.816 47.4213 56.6094 47.6293 57.344C47.844 58.0814 48.1173 58.7467 48.5187 59.3014C49.2267 60.2654 50.2039 60.9054 51.2346 61.296C52.2693 61.688 53.3693 61.8467 54.4267 61.848C54.944 61.8467 55.4506 61.808 55.936 61.7374C57.6333 61.484 59.1373 60.604 60.236 59.384C61.3306 58.164 62.0386 56.5774 62.0413 54.8694C62.0413 54.408 61.9879 53.9414 61.8786 53.4774C61.8186 53.2387 61.7439 53.0654 61.6479 52.8534C61.3173 52.1427 60.72 51.144 60.02 50.2374C59.668 49.7854 59.2973 49.3627 58.888 49.0107C58.6813 48.8347 58.4653 48.6747 58.2106 48.5427C57.956 48.412 57.6533 48.2987 57.2693 48.2947C56.98 48.292 56.6439 48.3787 56.3733 48.5587C56.0999 48.7374 55.9053 48.98 55.7746 49.2214C55.472 49.7787 55.6773 50.4747 56.2346 50.7787C56.7919 51.0814 57.488 50.876 57.792 50.3187L57.3693 50.0894L57.6253 50.4827L57.7907 50.3187L57.3693 50.0894L57.6253 50.4827L57.2693 49.936V50.5907L57.6253 50.4827L57.2693 49.936V50.5907V50.1827L57.1426 50.5734L57.2693 50.5907V50.1827L57.1426 50.5734L57.1466 50.56L57.1413 50.5734H57.1426L57.1466 50.56L57.1413 50.5734C57.188 50.5854 57.4666 50.784 57.744 51.0934C58.1733 51.5547 58.66 52.236 59.0293 52.84C59.2147 53.1427 59.3733 53.428 59.4853 53.6507L59.6133 53.9267L59.6426 54.0027L59.6479 54.0174L59.824 53.964L59.6453 54.0067L59.6479 54.0174L59.824 53.964L59.6453 54.0067C59.7133 54.2934 59.7453 54.5827 59.7453 54.8694C59.7479 55.9254 59.2946 56.9987 58.528 57.8507C57.764 58.7027 56.7079 59.3067 55.6039 59.4667C55.2266 59.5214 54.828 59.552 54.4267 59.552C53.6027 59.5534 52.7613 59.4227 52.0506 59.152C51.3346 58.8787 50.7626 58.48 50.3679 57.9427C50.2186 57.748 49.988 57.2614 49.836 56.7147C49.6786 56.1667 49.5813 55.544 49.5826 55.0414C49.5826 54.772 49.6107 54.5387 49.652 54.3814C49.692 54.22 49.7439 54.1507 49.7453 54.1507L48.8866 53.3907L47.7399 53.452C47.7493 53.612 47.752 53.7734 47.752 53.9347C47.752 55.6267 47.244 57.0147 46.436 57.9547C45.6213 58.892 44.5279 59.4334 43.0813 59.4427C42.4013 59.4427 41.6413 59.3147 40.8093 59.02C39.6279 58.604 38.8533 58.1334 38.4066 57.6134C37.9626 57.092 37.7253 56.4934 37.716 55.4374C37.716 55.196 37.7306 54.932 37.7613 54.6454C37.8333 53.9014 38.2573 52.688 38.8866 51.7934C39.1973 51.3427 39.556 50.968 39.9026 50.7294C40.2546 50.4894 40.572 50.384 40.8987 50.3827L41.1666 50.408C41.7893 50.5227 42.3866 50.1107 42.5013 49.4867C42.6159 48.864 42.2039 48.2654 41.5813 48.1507" fill="#231F20"/>
<path d="M12.1066 0.67727C12.0572 0.667937 11.2973 0.514591 10.16 0.514591C8.75463 0.517258 6.75595 0.742601 4.84128 1.84127C2.92528 2.9306 1.16126 4.94526 0.358597 8.19993C0.221264 8.74793 0.554608 9.30394 1.10261 9.44127C1.65194 9.5786 2.20662 9.24526 2.34395 8.69726C3.05195 5.90926 4.39863 4.46926 5.86263 3.61459C7.32797 2.76659 8.9773 2.5586 10.16 2.56127C10.636 2.56127 11.0333 2.59327 11.3053 2.62527C11.4399 2.64127 11.5453 2.65726 11.6119 2.66793L11.6853 2.67992L11.6986 2.68259C12.252 2.79459 12.7919 2.4386 12.9053 1.88526C13.0173 1.3306 12.6613 0.790588 12.1079 0.678588" fill="#231F20"/>
<path d="M82.888 2.68259L82.9 2.67992C83.0013 2.66126 83.5919 2.56127 84.4253 2.56127C85.6066 2.5586 87.256 2.76659 88.7213 3.61459C90.1853 4.46926 91.5319 5.90926 92.2426 8.69726C92.3799 9.24526 92.9359 9.5786 93.4839 9.44127C94.0319 9.30394 94.364 8.74793 94.228 8.19993C93.424 4.94526 91.6586 2.9306 89.7426 1.84127C87.8279 0.742601 85.8293 0.517258 84.4253 0.514591C83.2879 0.514591 82.5279 0.667937 82.4786 0.67727C81.9239 0.790603 81.5666 1.3306 81.68 1.88526C81.7933 2.4386 82.3333 2.79593 82.888 2.68259" fill="#231F20"/>
</svg>
