<svg width="96" height="60" viewBox="0 0 96 60" fill="none" xmlns="http://www.w3.org/2000/svg">
<path d="M24.2026 29.1946C24.2026 39.8788 19.6505 48.5372 14.0369 48.5372C8.42451 48.5372 3.87451 39.8788 3.87451 29.1946C3.87451 18.5122 8.42451 9.8507 14.0369 9.8507C19.6505 9.8507 24.2026 18.5122 24.2026 29.1946Z" fill="#231F20"/>
<path d="M21.9068 21.7877C21.9068 26.3893 19.9979 30.1184 17.6453 30.1184C15.2912 30.1184 13.3823 26.3893 13.3823 21.7877C13.3823 17.1867 15.2912 13.4575 17.6453 13.4575C19.9979 13.4575 21.9068 17.1867 21.9068 21.7877Z" fill="white"/>
<path d="M11.7803 27.1055C11.7803 28.7695 11.0891 30.1184 10.2375 30.1184C9.386 30.1184 8.69586 28.7695 8.69586 27.1055C8.69586 25.4397 9.386 24.0893 10.2375 24.0893C11.0891 24.0893 11.7803 25.4397 11.7803 27.1055Z" fill="white"/>
<path d="M16.4667 34.4398C16.4667 36.1055 15.776 37.4534 14.924 37.4534C14.0724 37.4534 13.3823 36.1055 13.3823 34.4398C13.3823 32.7758 14.0724 31.4268 14.924 31.4268C15.776 31.4268 16.4667 32.7758 16.4667 34.4398Z" fill="white"/>
<path d="M91.836 29.1946C91.836 39.8788 87.2853 48.5372 81.6713 48.5372C76.0584 48.5372 71.5084 39.8788 71.5084 29.1946C71.5084 18.5122 76.0584 9.8507 81.6713 9.8507C87.2853 9.8507 91.836 18.5122 91.836 29.1946Z" fill="#231F20"/>
<path d="M89.54 21.7877C89.54 26.3893 87.632 30.1184 85.2787 30.1184C82.9253 30.1184 81.0161 26.3893 81.0161 21.7877C81.0161 17.1867 82.9253 13.4575 85.2787 13.4575C87.632 13.4575 89.54 17.1867 89.54 21.7877Z" fill="white"/>
<path d="M79.414 27.1055C79.414 28.7695 78.7235 30.1184 77.8719 30.1184C77.0203 30.1184 76.3303 28.7695 76.3303 27.1055C76.3303 25.4397 77.0203 24.0893 77.8719 24.0893C78.7235 24.0893 79.414 25.4397 79.414 27.1055Z" fill="white"/>
<path d="M84.1013 34.4398C84.1013 36.1055 83.4106 37.4534 82.5573 37.4534C81.7062 37.4534 81.0161 36.1055 81.0161 34.4398C81.0161 32.7758 81.7062 31.4268 82.5573 31.4268C83.4106 31.4268 84.1013 32.7758 84.1013 34.4398Z" fill="white"/>
<path d="M17.6526 49.4825C17.6526 51.5507 13.8354 53.2268 9.12811 53.2268C4.41971 53.2268 0.603577 51.5507 0.603577 49.4825C0.603577 47.4159 4.41971 45.7397 9.12811 45.7397C13.8354 45.7397 17.6526 47.4159 17.6526 49.4825Z" fill="#DB4582"/>
<path d="M95.1067 49.4825C95.1067 51.5507 91.2907 53.2268 86.5827 53.2268C81.8755 53.2268 78.0579 51.5507 78.0579 49.4825C78.0579 47.4159 81.8755 45.7397 86.5827 45.7397C91.2907 45.7397 95.1067 47.4159 95.1067 49.4825Z" fill="#DB4582"/>
<path d="M11.9838 0.925128C11.9349 0.915794 11.174 0.763662 10.036 0.762595C8.63116 0.765262 6.63223 0.99073 4.71823 2.08926C2.80209 3.17873 1.03796 5.19339 0.235959 8.44806C0.0983586 8.99593 0.431692 9.55166 0.980225 9.68926C1.52809 9.82673 2.08383 9.49339 2.22129 8.94539C2.92916 6.15739 4.27543 4.71726 5.73903 3.86259C7.20463 3.01473 8.85356 2.80633 10.036 2.809C10.512 2.809 10.9093 2.84126 11.1812 2.873C11.3172 2.88926 11.4224 2.90539 11.4896 2.91579L11.5625 2.9278L11.5754 2.93033C12.1292 3.04233 12.6693 2.68659 12.7822 2.13353C12.8948 1.57873 12.5374 1.03873 11.9844 0.926731" fill="#231F20"/>
<path d="M82.7626 2.93033L82.7747 2.9278C82.876 2.909 83.468 2.809 84.3013 2.809C85.4827 2.80633 87.132 3.01473 88.5973 3.86259C90.0613 4.71726 91.408 6.15739 92.1173 8.94539C92.2547 9.49339 92.8093 9.82673 93.3586 9.68926C93.9066 9.55166 94.24 8.99593 94.1027 8.44806C93.3 5.19339 91.5347 3.17873 89.6187 2.08926C87.7053 0.99073 85.7053 0.765262 84.3013 0.762595C83.164 0.763662 82.4027 0.915794 82.3533 0.925128C81.7995 1.03873 81.4421 1.57873 81.5552 2.13353C81.6683 2.68659 82.2084 3.04393 82.7626 2.93033" fill="#231F20"/>
<path d="M51.0708 54.5814C51.0708 57.0574 49.8718 59.0626 48.3937 59.0626C46.9145 59.0626 45.7156 57.0574 45.7156 54.5814C45.7156 52.108 46.9145 50.1012 48.3937 50.1012C49.8718 50.1012 51.0708 52.108 51.0708 54.5814Z" fill="#231F20"/>
</svg>
