<svg width="98" height="76" viewBox="0 0 98 76" fill="none" xmlns="http://www.w3.org/2000/svg">
<path d="M19.8604 52.616C19.8604 54.684 16.0448 56.36 11.3364 56.36C6.62969 56.36 2.81195 54.684 2.81195 52.616C2.81195 50.5506 6.62969 48.8733 11.3364 48.8733C16.0448 48.8733 19.8604 50.5506 19.8604 52.616Z" fill="#DB4582"/>
<path d="M97.316 52.616C97.316 54.684 93.5 56.36 88.792 56.36C84.0833 56.36 80.2677 54.684 80.2677 52.616C80.2677 50.5506 84.0833 48.8733 88.792 48.8733C93.5 48.8733 97.316 50.5506 97.316 52.616Z" fill="#DB4582"/>
<path d="M14.1917 0.410659C14.1426 0.399993 13.3817 0.247995 12.2442 0.246662C10.8401 0.249329 8.84064 0.475989 6.92704 1.57332C5.01091 2.66266 3.24637 4.67868 2.44371 7.93201C2.30677 8.48135 2.64011 9.03599 3.18851 9.17332C3.73637 9.31066 4.29211 8.97734 4.42971 8.42934C5.13797 5.64134 6.48437 4.20133 7.94731 3.34666C9.41357 2.49866 11.0625 2.29201 12.2442 2.29334C12.7202 2.29334 13.1177 2.32667 13.3896 2.35734C13.525 2.37334 13.6297 2.38935 13.6973 2.40002L13.7702 2.41333L13.7833 2.41466C14.3364 2.528 14.877 2.17067 14.9901 1.61733C15.1026 1.06267 14.7453 0.522659 14.1921 0.410659" fill="#231F20"/>
<path d="M84.9706 2.41466L84.984 2.41333C85.0853 2.39333 85.676 2.29334 86.5093 2.29334C87.6906 2.29201 89.34 2.49866 90.8066 3.34666C92.2706 4.20133 93.6173 5.64268 94.3266 8.42934C94.464 8.97734 95.02 9.31066 95.568 9.17332C96.116 9.03599 96.4493 8.48135 96.312 7.93201C95.508 4.67735 93.744 2.66266 91.8266 1.57332C89.9133 0.475989 87.9133 0.249329 86.5093 0.246662C85.372 0.247995 84.6106 0.399993 84.5613 0.410659C84.0078 0.522659 83.6505 1.06267 83.7636 1.61733C83.876 2.17067 84.4173 2.528 84.9706 2.41466" fill="#231F20"/>
<path d="M50.0645 74.3267C39.8823 74.3267 31.5984 67.1107 31.5984 58.2387C31.5984 54.5733 33.0803 52.792 36.1281 52.792C37.6047 52.792 39.3489 53.1933 41.3693 53.66C43.9708 54.2587 46.9188 54.9373 50.0645 54.9373C53.2084 54.9373 56.1563 54.2587 58.7568 53.66C60.7771 53.1933 62.5224 52.792 63.9984 52.792C67.0464 52.792 68.5281 54.5733 68.5281 58.2387C68.5281 67.1107 60.2453 74.3267 50.0645 74.3267" fill="#DB4582"/>
<path d="M63.9984 51.704C62.3984 51.704 60.5973 52.1187 58.5125 52.5987C55.9682 53.1853 53.0854 53.848 50.0645 53.848C47.0421 53.848 44.1584 53.184 41.614 52.5987C39.5292 52.1187 37.7286 51.704 36.1281 51.704C33.5645 51.704 30.5098 52.8373 30.5098 58.2387C30.5098 67.7107 39.2817 75.4147 50.0645 75.4147C60.8458 75.4147 69.6166 67.7107 69.6166 58.2387C69.6166 52.8373 66.562 51.704 63.9984 51.704ZM63.9978 53.8813C66.1598 53.8813 67.4396 54.8787 67.4396 58.2387C67.4396 66.5227 59.6593 73.2387 50.0645 73.2387C40.4666 73.2387 32.6869 66.5227 32.6869 58.2387C32.6869 54.88 33.9666 53.8813 36.1281 53.8813C39.2964 53.8813 44.3588 56.0267 50.0645 56.0267C55.7677 56.0267 60.8302 53.8813 63.9978 53.8813Z" fill="#231F20"/>
<path d="M60.9109 64.9133C60.4287 64.9133 59.9973 64.6107 59.8317 64.1573L56.6511 55.4027C56.5385 55.092 56.5651 54.748 56.7235 54.4587C56.8823 54.1693 57.1579 53.9627 57.4792 53.8907L58.7369 53.6027C60.7625 53.1373 62.512 52.7333 63.9964 52.7333C64.2005 52.7333 64.3979 52.7413 64.5885 52.7573C64.9453 52.7867 65.2677 52.9813 65.4604 53.2813C65.6531 53.5827 65.6948 53.9573 65.5729 54.2933L61.9896 64.1573C61.8245 64.6107 61.3932 64.9133 60.9109 64.9133Z" fill="white"/>
<path d="M63.9969 51.5866C62.3812 51.5866 60.5729 52.0026 58.4792 52.4853C58.0729 52.5799 57.6557 52.6746 57.2286 52.7706C56.5854 52.9146 56.0344 53.3293 55.7166 53.9079C55.4005 54.4866 55.3469 55.1733 55.5729 55.7946L58.7536 64.5493C59.0833 65.4559 59.9458 66.0599 60.9109 66.0599C61.876 66.0599 62.738 65.4559 63.0677 64.5493L66.651 54.6853C66.8953 54.0119 66.812 53.2653 66.4265 52.6626C66.0406 52.0599 65.3964 51.6719 64.6828 51.6133C64.4625 51.5959 64.2328 51.5866 63.9969 51.5866V51.5866ZM63.9969 53.8813C64.1682 53.8813 64.3338 53.8879 64.4942 53.9013L60.9109 63.7653L57.7297 55.0106C60.2104 54.4559 62.3573 53.8813 63.9969 53.8813Z" fill="#231F20"/>
<path d="M38.0697 64.9133C37.5869 64.9133 37.1557 64.6107 36.9912 64.1573L33.4912 54.5227C33.2786 53.936 33.5724 53.288 34.1526 53.0613C34.7177 52.84 35.364 52.7333 36.1292 52.7333C37.6114 52.7333 39.3588 53.136 41.3822 53.6013L41.5964 53.6507C41.9166 53.7253 42.1901 53.932 42.3469 54.2213C42.5046 54.5107 42.5302 54.852 42.4182 55.1613L39.1484 64.1573C38.9828 64.6107 38.5521 64.9133 38.0697 64.9133" fill="white"/>
<path d="M36.1292 51.5866C35.2182 51.5866 34.4354 51.7186 33.7349 51.9919C32.5745 52.4453 31.9869 53.7426 32.413 54.9133L35.913 64.5479C36.2421 65.4559 37.1041 66.0599 38.0697 66.0599C39.0344 66.0599 39.8964 65.4573 40.2265 64.5493L43.4964 55.5533C43.7208 54.9359 43.6697 54.2506 43.3557 53.6733C43.0412 53.0959 42.4942 52.6799 41.8536 52.5333L41.6396 52.4839C39.5473 52.0013 37.7417 51.5866 36.1292 51.5866V51.5866ZM36.1292 53.8813C37.5306 53.8813 39.3041 54.3013 41.339 54.7693L38.0697 63.7653L34.5697 54.1306C35.0188 53.9546 35.5412 53.8813 36.1292 53.8813" fill="#231F20"/>
<path d="M1.85359 25.292L21.4088 31.4293L2.15306 41.964C1.27919 42.4413 0.958794 43.5373 1.43693 44.4106C1.91453 45.2839 3.01039 45.6053 3.88439 45.128L26.8584 32.56C27.4927 32.2133 27.8584 31.5226 27.7869 30.8013C27.7161 30.0813 27.2229 29.4746 26.5323 29.2586L2.93386 21.8519C1.98279 21.5533 0.970792 22.0813 0.673459 23.032C0.375059 23.9826 0.903594 24.9946 1.85413 25.2933" fill="#231F20"/>
<path d="M95.608 21.852L72.0114 29.2587C71.3208 29.4747 70.8276 30.0814 70.7568 30.8014C70.686 31.5227 71.051 32.2134 71.686 32.56L94.6586 45.1267C95.532 45.6054 96.628 45.284 97.1066 44.4107C97.584 43.5373 97.264 42.4414 96.3906 41.964L77.1338 31.4294L96.688 25.292C97.6373 24.9947 98.1666 23.9827 97.868 23.032C97.5693 22.0827 96.5573 21.5533 95.608 21.852" fill="#231F20"/>
</svg>
