<svg width="96" height="71" viewBox="0 0 96 71" fill="none" xmlns="http://www.w3.org/2000/svg">
<path d="M24.5013 30.984C24.5013 41.6667 19.9507 50.3267 14.3387 50.3267C8.72535 50.3267 4.17468 41.6667 4.17468 30.984C4.17468 20.3 8.72535 11.6413 14.3387 11.6413C19.9507 11.6413 24.5013 20.3 24.5013 30.984Z" fill="#231F20"/>
<path d="M74.352 38.5653C74.3466 33.46 75.4546 28.852 77.1386 25.6573C77.9759 24.0587 78.9546 22.824 79.9413 22.032C80.9373 21.2373 81.892 20.8813 82.86 20.8773C83.8266 20.8813 84.7813 21.2373 85.7773 22.032C87.2613 23.2147 88.7079 25.4173 89.7253 28.304C90.7506 31.188 91.3679 34.736 91.3666 38.5653C91.3666 39.48 92.1079 40.2227 93.0226 40.2227C93.9373 40.2227 94.6786 39.48 94.6786 38.5653C94.6746 32.9867 93.5053 27.924 91.5119 24.1173C90.5106 22.2147 89.2986 20.6173 87.8533 19.452C86.4173 18.2893 84.6973 17.5627 82.86 17.5653C81.02 17.5627 79.3013 18.2893 77.8653 19.452C75.7013 21.2053 74.0439 23.9093 72.8706 27.196C71.7039 30.4867 71.0413 34.3827 71.0399 38.5653C71.0399 39.48 71.7813 40.2227 72.696 40.2227C73.6106 40.2227 74.352 39.48 74.352 38.5653" fill="#231F20"/>
<path d="M22.208 23.5773C22.208 28.1786 20.2987 31.908 17.944 31.908C15.5907 31.908 13.6827 28.1786 13.6827 23.5773C13.6827 18.976 15.5907 15.2466 17.944 15.2466C20.2987 15.2466 22.208 18.976 22.208 23.5773Z" fill="white"/>
<path d="M12.08 28.8933C12.08 30.5586 11.3892 31.908 10.5372 31.908C9.68525 31.908 8.99597 30.5586 8.99597 28.8933C8.99597 27.2293 9.68525 25.88 10.5372 25.88C11.3892 25.88 12.08 27.2293 12.08 28.8933Z" fill="white"/>
<path d="M16.768 36.2292C16.768 37.8932 16.0773 39.2439 15.2253 39.2439C14.3733 39.2439 13.6827 37.8932 13.6827 36.2292C13.6827 34.5639 14.3733 33.2146 15.2253 33.2146C16.0773 33.2146 16.768 34.5639 16.768 36.2292Z" fill="white"/>
<path d="M17.952 53.9293C17.952 55.996 14.136 57.6707 9.42936 57.6707C4.72136 57.6707 0.905334 55.996 0.905334 53.9293C0.905334 51.8613 4.72136 50.1853 9.42936 50.1853C14.136 50.1853 17.952 51.8613 17.952 53.9293Z" fill="#DB4582"/>
<path d="M95.408 53.9293C95.408 55.996 91.5906 57.6707 86.884 57.6707C82.1746 57.6707 78.3586 55.996 78.3586 53.9293C78.3586 51.8613 82.1746 50.1853 86.884 50.1853C91.5906 50.1853 95.408 51.8613 95.408 53.9293Z" fill="#DB4582"/>
<path d="M12.9693 0.4146C12.92 0.405267 12.16 0.251937 11.0226 0.251937C9.61863 0.253271 7.61865 0.47993 5.70531 1.57726C3.78931 2.66793 2.024 4.68259 1.22133 7.93726C1.084 8.48526 1.41734 9.04126 1.96534 9.1786C2.51334 9.3146 3.06928 8.98129 3.20662 8.43462C3.91595 5.64662 5.26263 4.20527 6.7253 3.3506C8.19197 2.50394 9.83996 2.29595 11.0226 2.29862C11.4986 2.29862 11.896 2.33061 12.1666 2.36261C12.3026 2.37861 12.408 2.39326 12.4746 2.40392L12.548 2.41727L12.5613 2.41994C13.1146 2.53194 13.6546 2.17461 13.7679 1.62127C13.8799 1.06794 13.5239 0.527933 12.9706 0.4146" fill="#231F20"/>
<path d="M83.7493 2.41994L83.7627 2.41727C83.864 2.3986 84.4547 2.29728 85.288 2.29862C86.4707 2.29595 88.1187 2.50394 89.5853 3.3506C91.048 4.20527 92.3946 5.64662 93.1039 8.43462C93.2413 8.98129 93.7973 9.3146 94.3453 9.1786C94.8933 9.04126 95.2266 8.48526 95.0893 7.93726C94.2866 4.68126 92.5213 2.66793 90.6053 1.57726C88.692 0.47993 86.692 0.253271 85.288 0.251937C84.1507 0.251937 83.3907 0.405267 83.3413 0.4146C82.7867 0.5266 82.4306 1.06794 82.5426 1.62127C82.656 2.17461 83.196 2.53194 83.7506 2.41994" fill="#231F20"/>
<path d="M56.2413 57.2119C56.244 60.2533 55.2706 62.9853 53.768 64.9039C52.2546 66.8293 50.2813 67.9199 48.156 67.9213C46.0293 67.9199 44.056 66.8293 42.5426 64.9039C41.0386 62.9839 40.0666 60.2533 40.068 57.2119C40.068 56.4866 39.4814 55.8999 38.7574 55.8999C38.0334 55.8999 37.4453 56.4866 37.4453 57.2119C37.448 60.8079 38.5786 64.0879 40.476 66.5199C42.3653 68.9453 45.0907 70.5453 48.156 70.5439C51.22 70.5453 53.9453 68.9453 55.8333 66.5199C57.732 64.0879 58.8627 60.8079 58.864 57.2119C58.864 56.4866 58.2773 55.8999 57.5533 55.8999C56.8293 55.8999 56.2426 56.4866 56.2426 57.2119" fill="#231F20"/>
</svg>
