<svg width="95" height="60" viewBox="0 0 95 60" fill="none" xmlns="http://www.w3.org/2000/svg">
<path d="M73.4946 35.1146C73.4893 30.0093 74.5973 25.4013 76.2813 22.2066C77.1186 20.6093 78.0973 19.3733 79.0839 18.5813C80.0799 17.7866 81.0333 17.4306 82.0013 17.428C82.9693 17.4306 83.924 17.7866 84.9186 18.5813C86.404 19.7653 87.8493 21.9666 88.868 24.8533C89.8933 27.7373 90.5093 31.2853 90.508 35.1146C90.508 36.0293 91.2493 36.7706 92.1653 36.7706C93.08 36.7706 93.8213 36.0293 93.8213 35.1146C93.816 29.536 92.648 24.4733 90.6533 20.6666C89.6533 18.764 88.4413 17.168 86.996 16.0013C85.56 14.8386 83.84 14.112 82.0013 14.1146C80.1626 14.112 78.444 14.8386 77.0066 16.0013C74.844 17.7546 73.1866 20.4586 72.0133 23.7453C70.8466 27.036 70.1826 30.932 70.1826 35.1146C70.1826 36.0293 70.924 36.7706 71.8386 36.7706C72.7533 36.7706 73.4946 36.0293 73.4946 35.1146" fill="#231F20"/>
<path d="M4.97464 35.1146C4.97064 30.0093 6.07729 25.4013 7.76129 22.2066C8.59996 20.6093 9.5773 19.3733 10.564 18.5813C11.56 17.7866 12.5146 17.4306 13.4826 17.428C14.4493 17.4306 15.404 17.7866 16.4 18.5813C17.884 19.7653 19.3306 21.9666 20.348 24.8533C21.3733 27.7373 21.9893 31.2853 21.9893 35.1146C21.9893 36.0293 22.7306 36.7706 23.6453 36.7706C24.56 36.7706 25.3013 36.0293 25.3013 35.1146C25.296 29.536 24.128 24.4733 22.1346 20.6666C21.1333 18.764 19.9213 17.168 18.476 16.0013C17.04 14.8386 15.3213 14.112 13.4826 14.1146C11.644 14.112 9.92395 14.8386 8.48795 16.0013C6.32395 17.7546 4.66663 20.4586 3.49329 23.7453C2.32663 27.036 1.66396 30.932 1.66263 35.1146C1.66263 36.0293 2.40395 36.7706 3.31862 36.7706C4.23328 36.7706 4.97464 36.0293 4.97464 35.1146" fill="#231F20"/>
<path d="M17.0959 45.4293C17.0959 47.496 13.2786 49.1707 8.57062 49.1707C3.86396 49.1707 0.0466309 47.496 0.0466309 45.4293C0.0466309 43.3613 3.86396 41.6853 8.57062 41.6853C13.2786 41.6853 17.0959 43.3613 17.0959 45.4293Z" fill="#DB4582"/>
<path d="M94.5506 45.4293C94.5506 47.496 90.7333 49.1707 86.0253 49.1707C81.3186 49.1707 77.5013 47.496 77.5013 45.4293C77.5013 43.3613 81.3186 41.6853 86.0253 41.6853C90.7333 41.6853 94.5506 43.3613 94.5506 45.4293Z" fill="#DB4582"/>
<path d="M12.1133 0.418608C12.0653 0.409275 11.3039 0.255945 10.1653 0.255945C8.75993 0.258612 6.76128 0.483939 4.84662 1.58261C2.93062 2.67194 1.1666 4.68661 0.363933 7.94128C0.2266 8.48928 0.559945 9.04527 1.10928 9.18261C1.65728 9.31994 2.21325 8.98661 2.35059 8.43728C3.05859 5.65061 4.40394 4.21061 5.86794 3.35595C7.33327 2.50795 8.9826 2.29994 10.1653 2.30261C10.6413 2.30261 11.0386 2.33461 11.3106 2.36661C11.4466 2.38261 11.5519 2.39862 11.6186 2.40928L11.6919 2.42128L11.7053 2.42395C12.2586 2.53728 12.7986 2.17995 12.9119 1.62662C13.0253 1.07328 12.6679 0.531943 12.1146 0.419943" fill="#231F20"/>
<path d="M82.8919 2.42395L82.9053 2.42128C83.0066 2.40261 83.5973 2.30261 84.4306 2.30261C85.6119 2.29994 87.2613 2.50795 88.7266 3.35595C90.1906 4.21061 91.5373 5.65061 92.2466 8.43728C92.3826 8.98661 92.9386 9.31994 93.4866 9.18261C94.0359 9.04527 94.3693 8.48928 94.2319 7.94128C93.4279 4.68661 91.6639 2.67194 89.7479 1.58261C87.8346 0.483939 85.8346 0.258612 84.4306 0.255945C83.2919 0.255945 82.5319 0.409275 82.4826 0.418608C81.9293 0.531941 81.5719 1.07195 81.6852 1.62662C81.7972 2.17995 82.3386 2.53728 82.8919 2.42395" fill="#231F20"/>
<path d="M44.276 39.7866L47.9413 36.1893C48.7426 35.404 49.768 35.02 50.808 35.0173C51.8733 35.02 52.9226 35.424 53.7293 36.244C54.548 37.0653 55.0493 38.3413 55.04 39.4546C55.0413 39.9826 54.936 40.464 54.7493 40.86C54.5586 41.2573 54.2973 41.576 53.9106 41.84C53.772 41.9373 53.3279 42.172 52.8186 42.4026C52.0439 42.756 51.0746 43.1453 50.3106 43.4413C49.928 43.5893 49.5946 43.7146 49.3586 43.8026C49.1226 43.8906 48.9866 43.9386 48.9866 43.94C48.328 44.1773 47.892 44.804 47.8946 45.504C47.8973 46.204 48.34 46.8253 49 47.0586C49.0013 47.0586 49.2373 47.1426 49.6213 47.2826C50.1946 47.4933 51.088 47.8293 51.9226 48.176C52.34 48.3493 52.744 48.5253 53.0773 48.684C53.408 48.84 53.6786 48.9906 53.768 49.0533C54.1466 49.312 54.3999 49.6213 54.5853 50.0106C54.7679 50.3973 54.8693 50.8693 54.8693 51.388C54.8786 52.5133 54.36 53.8173 53.5226 54.6413L53.524 54.64C52.72 55.4426 51.6813 55.836 50.6293 55.8386C49.576 55.836 48.5386 55.4413 47.736 54.64L44.0226 50.9266C43.3746 50.28 42.3266 50.28 41.68 50.928C41.0333 51.5746 41.0333 52.6226 41.68 53.2693L45.3933 56.9826C46.8333 58.424 48.7386 59.1533 50.6293 59.1506C52.5173 59.1533 54.4226 58.4253 55.8653 56.9826L55.8666 56.9813C57.36 55.4693 58.172 53.432 58.1813 51.388C58.1813 50.444 58 49.488 57.5826 48.6C57.168 47.7146 56.5066 46.9026 55.6213 46.308C55.1653 46.0053 54.6613 45.764 54.0813 45.5C52.3693 44.7306 50.1226 43.9426 50.1 43.9346L49.5506 45.4973L50.1146 47.0533C50.1253 47.0493 51.16 46.6746 52.3626 46.1933C52.964 45.952 53.6066 45.6826 54.1933 45.416C54.7866 45.1413 55.3026 44.8906 55.76 44.588C56.6546 43.988 57.324 43.168 57.744 42.2733C58.1666 41.3773 58.3519 40.4106 58.3519 39.4546C58.3439 37.44 57.5573 35.428 56.0933 33.924C54.6466 32.4493 52.72 31.704 50.808 31.7053C48.9413 31.704 47.0586 32.4146 45.6213 33.8253L41.956 37.4226C41.304 38.0626 41.2933 39.112 41.9346 39.7653C42.5746 40.4173 43.624 40.428 44.2773 39.7866" fill="#231F20"/>
</svg>
