<svg width="96" height="68" viewBox="0 0 96 68" fill="none" xmlns="http://www.w3.org/2000/svg">
<path d="M24.5013 29.0973C24.5013 39.7799 19.9507 48.4399 14.3387 48.4399C8.72535 48.4399 4.17468 39.7799 4.17468 29.0973C4.17468 18.4146 8.72535 9.75327 14.3387 9.75327C19.9507 9.75327 24.5013 18.4146 24.5013 29.0973Z" fill="#231F20"/>
<path d="M22.208 21.6907C22.208 26.292 20.2987 30.0214 17.944 30.0214C15.5907 30.0214 13.6827 26.292 13.6827 21.6907C13.6827 17.0894 15.5907 13.36 17.944 13.36C20.2987 13.36 22.208 17.0894 22.208 21.6907Z" fill="white"/>
<path d="M12.08 27.0067C12.08 28.6707 11.3892 30.0214 10.5372 30.0214C9.68525 30.0214 8.99597 28.6707 8.99597 27.0067C8.99597 25.3427 9.68525 23.9934 10.5372 23.9934C11.3892 23.9934 12.08 25.3427 12.08 27.0067Z" fill="white"/>
<path d="M16.768 34.3426C16.768 36.008 16.0773 37.3573 15.2253 37.3573C14.3733 37.3573 13.6827 36.008 13.6827 34.3426C13.6827 32.6773 14.3733 31.328 15.2253 31.328C16.0773 31.328 16.768 32.6773 16.768 34.3426Z" fill="white"/>
<path d="M92.136 29.0973C92.136 39.7799 87.5854 48.4399 81.972 48.4399C76.36 48.4399 71.8093 39.7799 71.8093 29.0973C71.8093 18.4146 76.36 9.75327 81.972 9.75327C87.5854 9.75327 92.136 18.4146 92.136 29.0973Z" fill="#231F20"/>
<path d="M89.8413 21.6907C89.8413 26.292 87.9333 30.0214 85.5786 30.0214C83.2253 30.0214 81.3173 26.292 81.3173 21.6907C81.3173 17.0894 83.2253 13.36 85.5786 13.36C87.9333 13.36 89.8413 17.0894 89.8413 21.6907Z" fill="white"/>
<path d="M79.7133 27.0067C79.7133 28.6707 79.0226 30.0214 78.1706 30.0214C77.3199 30.0214 76.6293 28.6707 76.6293 27.0067C76.6293 25.3427 77.3199 23.9934 78.1706 23.9934C79.0226 23.9934 79.7133 25.3427 79.7133 27.0067Z" fill="white"/>
<path d="M84.4012 34.3426C84.4012 36.008 83.712 37.3573 82.86 37.3573C82.008 37.3573 81.3173 36.008 81.3173 34.3426C81.3173 32.6773 82.008 31.328 82.86 31.328C83.712 31.328 84.4012 32.6773 84.4012 34.3426Z" fill="white"/>
<path d="M17.952 49.3866C17.952 51.4533 14.136 53.1293 9.42936 53.1293C4.72136 53.1293 0.905334 51.4533 0.905334 49.3866C0.905334 47.3186 4.72136 45.6426 9.42936 45.6426C14.136 45.6426 17.952 47.3186 17.952 49.3866Z" fill="#DB4582"/>
<path d="M95.408 49.3866C95.408 51.4533 91.5906 53.1293 86.884 53.1293C82.1746 53.1293 78.3586 51.4533 78.3586 49.3866C78.3586 47.3186 82.1746 45.6426 86.884 45.6426C91.5906 45.6426 95.408 47.3186 95.408 49.3866Z" fill="#DB4582"/>
<path d="M12.2839 0.828027C12.2346 0.818694 11.4733 0.665348 10.3359 0.665348C8.93192 0.668015 6.93194 0.893357 5.0186 1.99069C3.1026 3.08136 1.33722 5.09602 0.534555 8.35068C0.397222 8.89868 0.730599 9.45469 1.27993 9.59203C1.82793 9.72936 2.38394 9.39601 2.52127 8.84801C3.22927 6.06001 4.57589 4.62002 6.03989 3.76535C7.50523 2.91735 9.15459 2.70935 10.3359 2.71201C10.8119 2.71201 11.2092 2.74403 11.4812 2.77603C11.6172 2.79203 11.7212 2.80669 11.7892 2.81869L11.8612 2.83068L11.8746 2.83335C12.4279 2.94535 12.9692 2.58802 13.0812 2.03468C13.1946 1.48135 12.8372 0.94136 12.2839 0.828027" fill="#231F20"/>
<path d="M83.064 2.83335L83.076 2.83068C83.1786 2.81201 83.7693 2.71068 84.6013 2.71201C85.7826 2.70935 87.432 2.91735 88.8987 3.76535C90.3613 4.62002 91.708 6.06001 92.4173 8.84801C92.5546 9.39601 93.1106 9.72936 93.6586 9.59203C94.208 9.45469 94.5413 8.89868 94.404 8.35068C93.6 5.09602 91.8347 3.08136 89.9187 1.99069C88.0053 0.893357 86.0053 0.668015 84.6013 0.665348C83.464 0.665348 82.704 0.818694 82.6547 0.828027C82.1013 0.94136 81.744 1.48135 81.8573 2.03468C81.9693 2.58935 82.5093 2.94535 83.064 2.83335" fill="#231F20"/>
<path d="M48.5813 66.4387C38.3667 66.4387 30.0574 59.1961 30.0574 50.2921C30.0574 46.5881 31.5587 44.7867 34.6453 44.7867C36.1293 44.7867 37.8773 45.1894 39.9 45.6561C42.4987 46.2534 45.4427 46.932 48.5813 46.932C51.7187 46.932 54.664 46.2534 57.2613 45.6561C59.2853 45.1894 61.0334 44.7867 62.516 44.7867C65.604 44.7867 67.1054 46.5881 67.1054 50.2921C67.1054 59.1961 58.7947 66.4387 48.5813 66.4387" fill="white"/>
<path d="M62.5173 43.6401C60.9026 43.6401 59.0959 44.0561 57.0039 44.5375C54.4653 45.1215 51.5879 45.7841 48.5813 45.7841C45.5733 45.7841 42.696 45.1215 40.1586 44.5375C38.0666 44.0561 36.26 43.6401 34.6466 43.6401C32.504 43.6401 28.9106 44.5028 28.9106 50.2921C28.9106 59.8281 37.7346 67.5854 48.5813 67.5854C59.4279 67.5854 68.252 59.8281 68.252 50.2921C68.252 44.5028 64.6599 43.6401 62.5173 43.6401V43.6401ZM62.516 45.9348C64.6786 45.9348 65.9573 46.9321 65.9573 50.2921C65.9573 58.5761 58.1773 65.2908 48.5813 65.2908C38.9853 65.2908 31.2053 58.5761 31.2053 50.2921C31.2053 46.9335 32.4853 45.9348 34.6466 45.9348C37.8146 45.9348 42.8759 48.0801 48.5813 48.0801C54.2853 48.0801 59.348 45.9348 62.516 45.9348" fill="#231F20"/>
<path d="M30.836 48.8987C30.7733 49.1867 32.3146 50.5613 32.5346 50.7787C33.3053 51.536 34.1573 52.2107 35.0947 52.7533C35.7827 53.1533 36.5013 53.4947 37.2387 53.792C37.7013 53.9787 38.256 54.18 38.6667 54.3947C35.8933 54.6333 32.972 54.072 30.5107 52.76C30.0533 52.5173 30.836 48.9013 30.836 48.8987" fill="#231F20"/>
<path d="M66.1747 48.8987C66.236 49.1867 64.6946 50.5613 64.476 50.7787C63.704 51.536 62.8507 52.2107 61.916 52.7533C61.2267 53.1533 60.508 53.4947 59.7706 53.792C59.308 53.9787 58.7547 54.18 58.344 54.3947C61.1147 54.6333 64.0387 54.072 66.4987 52.76C66.9573 52.5173 66.1747 48.9013 66.1747 48.8987" fill="#231F20"/>
<path d="M42.024 55.404C42.024 55.404 42.1346 55.3733 42.328 55.336C42.5173 55.2973 42.788 55.256 43.1106 55.216C43.4346 55.1826 43.8093 55.1506 44.2066 55.136C44.6053 55.1266 45.028 55.1093 45.4493 55.1226C45.6613 55.136 45.8706 55.128 46.0773 55.14C46.2826 55.1453 46.4893 55.1586 46.6866 55.176C47.0786 55.1933 47.4466 55.2213 47.7693 55.264C47.9266 55.28 48.0733 55.2933 48.2026 55.3053C48.3333 55.316 48.4493 55.3346 48.5466 55.3493C48.7386 55.3773 48.8533 55.404 48.8533 55.404C48.8533 55.404 48.7559 55.46 48.5786 55.5413C48.4906 55.5813 48.3813 55.632 48.252 55.6786C48.1266 55.7266 47.98 55.7893 47.82 55.8333C47.5 55.912 47.1199 55.992 46.7119 56.048C46.3039 56.084 45.8667 56.1146 45.432 56.1066C45 56.0893 44.564 56.068 44.1627 56.004C43.76 55.9466 43.3853 55.8706 43.0666 55.7813C42.7506 55.696 42.4879 55.6026 42.3066 55.5293C42.1239 55.4573 42.024 55.404 42.024 55.404" fill="#231F20"/>
</svg>
