<svg width="98" height="58" viewBox="0 0 98 58" fill="none" xmlns="http://www.w3.org/2000/svg">
<path d="M18.4586 45.8002C18.4586 47.8669 14.6426 49.5439 9.93464 49.5439C5.22664 49.5439 1.4093 47.8669 1.4093 45.8002C1.4093 43.7319 5.22664 42.0574 9.93464 42.0574C14.6426 42.0574 18.4586 43.7319 18.4586 45.8002Z" fill="#DB4582"/>
<path d="M95.912 45.8002C95.912 47.8669 92.0973 49.5439 87.3893 49.5439C82.6813 49.5439 78.8653 47.8669 78.8653 45.8002C78.8653 43.7319 82.6813 42.0574 87.3893 42.0574C92.0973 42.0574 95.912 43.7319 95.912 45.8002Z" fill="#DB4582"/>
<path d="M13.476 0.790776C13.4266 0.781443 12.6653 0.627845 11.528 0.627845C10.124 0.630378 8.12531 0.855975 6.21065 1.95437C4.29465 3.04397 2.53065 5.05851 1.72798 8.31317C1.59065 8.86117 1.92399 9.41731 2.47199 9.55437C3.01999 9.69184 3.57598 9.35851 3.71332 8.81064C4.42132 6.02264 5.76799 4.58251 7.23199 3.72784C8.69732 2.87984 10.3466 2.6721 11.528 2.67464C12.004 2.67464 12.4013 2.70637 12.6733 2.73877C12.8093 2.75491 12.9133 2.77051 12.9813 2.78144L13.0547 2.79345L13.0667 2.79598C13.62 2.90798 14.1613 2.55171 14.2733 1.99865C14.3867 1.44398 14.0293 0.903842 13.476 0.791842" fill="#231F20"/>
<path d="M84.256 2.79598L84.268 2.79345C84.3706 2.77465 84.9613 2.67464 85.7933 2.67464C86.9746 2.6721 88.624 2.87984 90.0906 3.72784C91.5533 4.58251 92.9013 6.02264 93.6107 8.81064C93.748 9.35851 94.304 9.69184 94.852 9.55437C95.4 9.41731 95.7333 8.86117 95.596 8.31317C94.792 5.05851 93.028 3.04397 91.1107 1.95437C89.1973 0.855975 87.1973 0.630378 85.7933 0.627845C84.656 0.627845 83.896 0.781443 83.8467 0.790776C83.2933 0.903843 82.936 1.44398 83.0493 1.99865C83.1613 2.55171 83.7013 2.90904 84.256 2.79598" fill="#231F20"/>
<path d="M1.78397 25.3491H25.3826C26.296 25.3491 27.0386 24.6079 27.0386 23.6945C27.0386 22.7787 26.296 22.0371 25.3826 22.0371H1.78397C0.869299 22.0371 0.12796 22.7787 0.12796 23.6945C0.12796 24.6079 0.869299 25.3491 1.78397 25.3491Z" fill="#231F20"/>
<path d="M95.5386 22.0371H71.9413C71.0266 22.0371 70.284 22.7787 70.284 23.6945C70.284 24.6079 71.0266 25.3491 71.9413 25.3491H95.5386C96.4533 25.3491 97.1946 24.6079 97.1946 23.6945C97.1946 22.7787 96.4533 22.0371 95.5386 22.0371Z" fill="#231F20"/>
<path d="M38.46 56.344C36.208 56.344 33.6866 56.0465 32.072 53.8345C30.708 51.9695 30.1 48.9012 30.1 43.8893C30.1 38.0877 33.7386 37.4184 36.476 37.4184C37.8906 37.4184 39.528 37.6055 41.2586 37.8028C43.3613 38.0424 45.744 38.3132 48.2386 38.3132C50.7 38.3132 53.1266 38.0465 55.2666 37.8121C57.108 37.6091 58.8466 37.4184 60.3666 37.4184C63.2773 37.4184 67.1493 38.0877 67.1493 43.8893C67.1493 54.0799 63.0466 56.1679 56.8866 56.1679C55.704 56.1679 54.4586 56.1028 53.14 56.0336C51.6893 55.9575 50.1893 55.8788 48.6253 55.8788C46.332 55.8788 44.2706 56.0227 42.452 56.1492C40.952 56.2533 39.656 56.344 38.46 56.344" fill="white"/>
<path d="M60.3666 36.2705C58.7826 36.2705 57.0146 36.4653 55.1413 36.6705C52.9266 36.9148 50.6373 37.1669 48.2386 37.1669C45.8093 37.1669 43.4613 36.8986 41.3893 36.6626C39.624 36.4601 37.956 36.2705 36.476 36.2705C31.484 36.2705 28.9533 38.8345 28.9533 43.8893C28.9533 52.5038 30.508 57.4918 38.46 57.4918C39.696 57.4918 41.0746 57.396 42.5333 57.2934C44.3333 57.1678 46.372 57.0252 48.6253 57.0252C50.1586 57.0252 51.644 57.1038 53.08 57.1788C54.4146 57.2492 55.6746 57.3148 56.8866 57.3148C64.9906 57.3148 68.2973 53.4252 68.2973 43.8893C68.2973 38.8345 65.6293 36.2705 60.3666 36.2705V36.2705ZM60.3666 38.5653C63.812 38.5653 66.0013 39.5986 66.0013 43.8893C66.0013 53.5397 62.388 55.02 56.8866 55.02C54.452 55.02 51.6493 54.7304 48.6253 54.7304C44.4453 54.7304 41.0773 55.197 38.46 55.197C33.512 55.197 31.248 53.5304 31.248 43.8893C31.248 39.6002 33.2306 38.5653 36.476 38.5653C39.4973 38.5653 43.6106 39.4612 48.2386 39.4612C52.864 39.4612 57.16 38.5653 60.3666 38.5653" fill="#231F20"/>
<path d="M30.1146 44.0544C30.164 44.3454 32.1053 45.0533 32.388 45.1721C33.3853 45.5908 34.4266 45.9028 35.4973 46.0601C36.2853 46.1773 37.0786 46.2278 37.8746 46.232C38.3733 46.2345 38.9613 46.2158 39.4226 46.2637C36.9346 47.5106 34.0133 48.0705 31.2413 47.7626C30.724 47.7054 30.1146 44.0574 30.1146 44.0544" fill="#231F20"/>
<path d="M67.208 44.0544C67.16 44.3454 65.22 45.0533 64.9346 45.1721C63.9386 45.5908 62.8973 45.9028 61.8253 46.0601C61.0386 46.1773 60.2453 46.2278 59.4493 46.232C58.9506 46.2345 58.36 46.2158 57.9 46.2637C60.388 47.5106 63.3106 48.0705 66.0813 47.7626C66.5986 47.7054 67.208 44.0574 67.208 44.0544" fill="#231F20"/>
<path d="M43.4173 46.5335C43.4173 46.5335 43.7493 46.3825 44.2493 46.2517C44.7493 46.1278 45.4146 46.0465 46.08 46.0423C46.7466 46.0454 47.412 46.1267 47.912 46.2517C48.4106 46.3814 48.744 46.5335 48.744 46.5335C48.744 46.5335 48.4106 46.6866 47.912 46.8158C47.412 46.9413 46.7466 47.0226 46.08 47.0251C45.4146 47.021 44.7493 46.9397 44.2493 46.8147C43.7493 46.685 43.4173 46.5335 43.4173 46.5335" fill="#231F20"/>
<path d="M48.2386 46.5335C48.2386 46.5335 48.5706 46.3825 49.0706 46.2517C49.5693 46.1278 50.236 46.0465 50.9013 46.0423C51.568 46.0454 52.2333 46.1267 52.732 46.2517C53.232 46.3814 53.5653 46.5335 53.5653 46.5335C53.5653 46.5335 53.232 46.6866 52.732 46.8158C52.2333 46.9413 51.568 47.0226 50.9013 47.0251C50.236 47.021 49.5693 46.9397 49.0706 46.8147C48.5706 46.685 48.2386 46.5335 48.2386 46.5335" fill="#231F20"/>
</svg>
