<svg width="96" height="62" viewBox="0 0 96 62" fill="none" xmlns="http://www.w3.org/2000/svg">
<path d="M24.508 25.9306C24.508 36.6133 19.9586 45.2747 14.3453 45.2747C8.73198 45.2747 4.18265 36.6133 4.18265 25.9306C4.18265 15.248 8.73198 6.58666 14.3453 6.58666C19.9586 6.58666 24.508 15.248 24.508 25.9306Z" fill="#231F20"/>
<path d="M22.2146 18.524C22.2146 23.1253 20.3066 26.8546 17.9519 26.8546C15.5999 26.8546 13.6906 23.1253 13.6906 18.524C13.6906 13.9226 15.5999 10.1933 17.9519 10.1933C20.3066 10.1933 22.2146 13.9226 22.2146 18.524Z" fill="white"/>
<path d="M12.0866 23.8399C12.0866 25.5039 11.396 26.8546 10.5453 26.8546C9.69464 26.8546 9.00397 25.5039 9.00397 23.8399C9.00397 22.1759 9.69464 20.8266 10.5453 20.8266C11.396 20.8266 12.0866 22.1759 12.0866 23.8399Z" fill="white"/>
<path d="M16.7746 31.176C16.7746 32.8413 16.084 34.1907 15.232 34.1907C14.3813 34.1907 13.6906 32.8413 13.6906 31.176C13.6906 29.5107 14.3813 28.1627 15.232 28.1627C16.084 28.1627 16.7746 29.5107 16.7746 31.176Z" fill="white"/>
<path d="M92.1426 25.9306C92.1426 36.6133 87.5933 45.2747 81.98 45.2747C76.3666 45.2747 71.8173 36.6133 71.8173 25.9306C71.8173 15.248 76.3666 6.58666 81.98 6.58666C87.5933 6.58666 92.1426 15.248 92.1426 25.9306Z" fill="#231F20"/>
<path d="M89.8493 18.524C89.8493 23.1253 87.9399 26.8546 85.5853 26.8546C83.2333 26.8546 81.3253 23.1253 81.3253 18.524C81.3253 13.9226 83.2333 10.1933 85.5853 10.1933C87.9399 10.1933 89.8493 13.9226 89.8493 18.524Z" fill="white"/>
<path d="M79.7226 23.8399C79.7226 25.5039 79.032 26.8546 78.18 26.8546C77.3293 26.8546 76.6386 25.5039 76.6386 23.8399C76.6386 22.1759 77.3293 20.8266 78.18 20.8266C79.032 20.8266 79.7226 22.1759 79.7226 23.8399Z" fill="white"/>
<path d="M84.4093 31.176C84.4093 32.8413 83.7186 34.1907 82.8666 34.1907C82.0146 34.1907 81.3253 32.8413 81.3253 31.176C81.3253 29.5107 82.0146 28.1627 82.8666 28.1627C83.7186 28.1627 84.4093 29.5107 84.4093 31.176Z" fill="white"/>
<path d="M17.9599 46.22C17.9599 48.2867 14.1439 49.9626 9.43728 49.9626C4.72795 49.9626 0.911957 48.2867 0.911957 46.22C0.911957 44.152 4.72795 42.476 9.43728 42.476C14.1439 42.476 17.9599 44.152 17.9599 46.22Z" fill="#DB4582"/>
<path d="M95.4146 46.22C95.4146 48.2867 91.5973 49.9626 86.8906 49.9626C82.1826 49.9626 78.3666 48.2867 78.3666 46.22C78.3666 44.152 82.1826 42.476 86.8906 42.476C91.5973 42.476 95.4146 44.152 95.4146 46.22Z" fill="#DB4582"/>
<path d="M9.51465 2.34135C9.54398 2.40935 10.1373 3.97334 11.5466 5.58401C12.944 7.18801 15.2546 8.86801 18.5306 8.86401C19.6426 8.86401 20.852 8.67068 22.1546 8.24135C22.692 8.06535 22.984 7.48668 22.8066 6.95068C22.6306 6.41334 22.052 6.12134 21.5147 6.29867C20.3947 6.66667 19.4066 6.81734 18.5306 6.81734C15.9813 6.81334 14.2626 5.56134 13.0853 4.23468C12.5053 3.57334 12.0813 2.90135 11.8093 2.40268C11.6733 2.15335 11.5733 1.94668 11.5106 1.80802L11.4426 1.65201L11.4293 1.61601L11.4266 1.61069L11.0893 1.74135L11.428 1.61334L11.4266 1.61069L11.0893 1.74135L11.428 1.61334C11.2253 1.08534 10.6346 0.820014 10.1066 1.02135C9.57864 1.22268 9.31332 1.81335 9.51465 2.34135" fill="#231F20"/>
<path d="M84.1893 1.61201L84.508 1.73468L84.1893 1.61069V1.61201L84.508 1.73468L84.1893 1.61069C84.1839 1.63069 83.64 2.99734 82.476 4.29601C81.2973 5.60001 79.5946 6.81334 77.0839 6.81734C76.2079 6.81734 75.2186 6.66667 74.1013 6.29867C73.564 6.12134 72.9853 6.41334 72.808 6.94934C72.632 7.48668 72.9226 8.06535 73.4599 8.24268C74.7613 8.67068 75.9719 8.86401 77.0839 8.86401C80.3613 8.86801 82.672 7.18801 84.068 5.58401C85.4786 3.97334 86.072 2.41068 86.1013 2.34135C86.3026 1.81335 86.0373 1.22268 85.5093 1.02135C84.9813 0.820014 84.3906 1.08534 84.1893 1.61334" fill="#231F20"/>
<path d="M62.3706 60.788C60.888 60.788 59.14 60.3866 57.116 59.92C54.5186 59.3213 51.5746 58.644 48.4373 58.644C45.2986 58.644 42.3546 59.3213 39.7559 59.92C37.7319 60.3866 35.9853 60.788 34.5013 60.788C31.4146 60.788 29.9133 58.988 29.9133 55.2826C29.9133 46.3786 38.2226 39.136 48.4373 39.136C58.6506 39.136 66.9599 46.3786 66.9599 55.2826C66.9599 58.988 65.4586 60.788 62.3706 60.788Z" fill="white"/>
<path d="M48.4373 37.988C37.5906 37.988 28.7653 45.7467 28.7653 55.2827C28.7653 61.072 32.36 61.936 34.5013 61.936C36.1146 61.936 37.9213 61.52 40.0133 61.0387C42.552 60.4534 45.4293 59.7907 48.4373 59.7907C51.444 59.7907 54.3213 60.4534 56.8599 61.0387C58.9506 61.52 60.7573 61.936 62.3706 61.936C64.5133 61.936 68.108 61.072 68.108 55.2827C68.108 45.7467 59.2826 37.988 48.4373 37.988ZM48.4373 40.2827C58.0333 40.2827 65.812 46.9987 65.812 55.2827C65.812 58.6427 64.5333 59.64 62.3706 59.64C59.2026 59.64 54.1413 57.496 48.4373 57.496C42.732 57.496 37.6693 59.64 34.5013 59.64C32.3386 59.64 31.06 58.6427 31.06 55.2827C31.06 46.9987 38.8386 40.2827 48.4373 40.2827Z" fill="#231F20"/>
<path d="M66.1813 56.676C66.2426 56.388 64.7026 55.0133 64.4826 54.7973C63.712 54.0387 62.86 53.364 61.9226 52.8214C61.2346 52.4214 60.516 52.0813 59.7773 51.7827C59.3173 51.596 58.7613 51.3947 58.3506 51.18C61.1226 50.9427 64.0466 51.5027 66.5066 52.8147C66.964 53.0587 66.1813 56.6734 66.1813 56.676" fill="#231F20"/>
<path d="M30.8426 56.676C30.7813 56.388 32.3226 55.0133 32.5426 54.7973C33.3133 54.0387 34.1653 53.364 35.1013 52.8214C35.7906 52.4214 36.508 52.0813 37.2466 51.7827C37.7093 51.596 38.264 51.3947 38.6733 51.18C35.9 50.9427 32.9786 51.5027 30.5173 52.8147C30.06 53.0587 30.8426 56.6734 30.8426 56.676" fill="#231F20"/>
<path d="M54.9946 50.172C54.9946 50.172 54.8826 50.2014 54.6906 50.2387C54.4986 50.2774 54.228 50.3187 53.9066 50.3587C53.5826 50.3934 53.208 50.424 52.8093 50.44C52.4106 50.448 51.9906 50.4654 51.568 50.452C51.356 50.44 51.148 50.448 50.94 50.436C50.732 50.4307 50.528 50.416 50.332 50.4C49.9386 50.3827 49.5693 50.3547 49.2493 50.3094C49.0906 50.296 48.944 50.2814 48.8133 50.2707C48.6826 50.2587 48.5666 50.24 48.4706 50.2267C48.2786 50.1987 48.1626 50.172 48.1626 50.172C48.1626 50.172 48.2613 50.1147 48.4386 50.0334C48.528 49.9947 48.636 49.944 48.764 49.896C48.8906 49.848 49.036 49.7854 49.1973 49.7427C49.5173 49.6627 49.8973 49.5827 50.3053 49.528C50.7133 49.4907 51.1506 49.4614 51.5839 49.4694C52.0186 49.4854 52.4533 49.5067 52.8546 49.572C53.2586 49.628 53.632 49.7054 53.9493 49.7934C54.2666 49.8787 54.5293 49.972 54.7106 50.0454C54.892 50.116 54.9946 50.172 54.9946 50.172" fill="#231F20"/>
</svg>
